<!DOCTYPE svg PUBLIC "-//W3C//DTD SVG 20010904//EN" "http://www.w3.org/TR/2001/REC-SVG-20010904/DTD/svg10.dtd">
<svg version="1.0" xmlns="http://www.w3.org/2000/svg" width="242px" height="320px" viewBox="0 0 2420 3200" preserveAspectRatio="xMidYMid meet">
<g id="layer101" fill="#020202" stroke="none">
 <path d="M0 1600 l0 -1600 1210 0 1210 0 0 1600 0 1600 -1210 0 -1210 0 0 -1600z"/>
 </g>
<g id="layer102" fill="#182312" stroke="none">
 <path d="M0 1600 l0 -1600 1210 0 1210 0 -1 283 c0 198 -3 275 -10 257 -6 -14 -10 -27 -9 -29 1 -2 -3 -7 -10 -11 -6 -4 -12 -14 -14 -22 -1 -8 -10 -23 -19 -33 -10 -10 -16 -23 -13 -30 2 -7 -3 -16 -12 -19 -9 -3 -25 -11 -34 -18 -13 -10 -20 -10 -29 -1 -9 9 2 25 46 67 32 31 55 56 51 56 -3 0 0 15 8 34 22 53 23 110 2 131 -10 10 -15 26 -13 37 3 10 1 16 -3 13 -12 -7 -31 30 -22 40 4 5 2 6 -3 2 -6 -3 -26 7 -44 23 -28 25 -39 29 -82 26 -65 -5 -128 -44 -175 -108 -21 -29 -41 -55 -45 -58 -14 -11 -30 -52 -25 -65 2 -7 -2 -16 -10 -19 -9 -4 -12 -11 -7 -18 12 -21 12 -39 -1 -44 -12 -5 -11 -62 1 -94 3 -8 5 -22 4 -31 -1 -10 4 -16 11 -15 7 0 13 -3 13 -9 0 -5 -6 -9 -13 -7 -8 2 -11 -1 -7 -7 3 -6 0 -11 -8 -11 -8 0 -17 -7 -21 -15 -3 -8 -11 -15 -18 -15 -9 0 -8 3 2 10 8 5 11 10 5 10 -5 0 -17 -4 -25 -10 -9 -5 -19 -5 -27 1 -6 6 -26 12 -44 13 -34 3 -40 15 -40 81 1 42 -24 75 -57 75 -36 0 -48 -9 -66 -50 -19 -43 -33 -60 -67 -82 -24 -15 -35 -16 -94 -5 -36 7 -63 16 -59 20 4 4 3 7 -3 7 -5 0 -10 23 -12 52 -3 65 -30 97 -88 102 -22 2 -46 6 -52 10 -17 11 -56 -18 -70 -52 -10 -23 -17 -28 -33 -24 -16 4 -19 10 -14 31 19 78 18 101 -2 144 -25 53 -41 61 -86 42 -26 -11 -88 -73 -112 -113 -1 -2 -16 6 -33 19 -17 12 -28 25 -26 30 3 4 -2 10 -11 13 -10 4 -13 2 -9 -7 4 -6 0 -4 -9 7 -8 10 -18 16 -23 13 -10 -6 -44 17 -42 29 3 18 -1 37 -7 31 -15 -15 -75 31 -70 54 0 4 -7 16 -17 27 -10 11 -19 36 -20 55 -1 19 -5 33 -9 31 -8 -5 -18 10 -23 38 -3 11 -13 31 -24 42 -11 12 -20 32 -20 46 0 14 -3 50 -7 81 -4 37 -3 59 5 63 6 4 11 13 11 19 0 9 -2 9 -8 0 -5 -7 -13 -9 -22 -3 -11 7 -13 31 -11 112 1 56 7 108 12 114 5 7 11 28 13 49 1 20 9 41 17 46 8 5 10 9 4 9 -5 0 -2 5 7 10 9 6 19 24 23 40 4 17 11 28 16 25 5 -4 6 1 3 10 -4 10 1 22 12 30 11 8 15 15 10 15 -5 0 -3 7 4 15 7 8 9 15 6 15 -4 0 1 12 12 28 10 15 17 32 15 38 -2 6 4 14 13 18 12 5 15 2 10 -11 -5 -13 -4 -15 4 -7 8 8 4 24 -15 60 -54 103 -90 148 -111 140 -8 -3 -17 0 -20 7 -2 7 -17 13 -32 12 -15 0 -38 5 -52 13 -24 14 -24 14 -5 -3 13 -11 15 -16 5 -13 -8 3 -21 15 -27 29 -7 13 -13 18 -13 11 0 -17 -49 -5 -76 19 -11 11 -23 16 -27 12 -4 -3 -16 2 -28 13 -12 10 -22 17 -23 16 0 -2 -14 2 -29 9 -20 9 -24 15 -15 21 10 5 10 8 1 8 -17 0 -63 -22 -63 -30 0 -4 -6 -7 -12 -8 -94 -11 -94 -11 -95 9 -1 11 2 17 7 14 5 -3 12 0 15 6 4 5 13 8 21 5 7 -3 18 3 23 12 5 9 12 16 15 15 3 -2 6 0 5 5 0 4 -6 6 -14 4 -7 -1 -23 11 -35 27 l-21 30 31 -4 c17 -2 28 0 24 6 -3 5 -9 7 -14 4 -13 -8 -71 16 -67 29 5 14 43 15 40 0 -1 -6 3 -11 10 -11 7 0 21 -4 31 -9 16 -6 18 -4 13 9 -3 9 -2 17 4 17 6 0 8 4 5 9 -3 5 1 11 9 15 8 3 15 1 15 -4 0 -6 6 -10 14 -10 18 0 25 -20 19 -53 -5 -24 -2 -27 23 -27 23 0 26 -2 14 -10 -11 -8 -7 -9 14 -4 20 5 32 2 40 -8 11 -16 13 -16 46 -25 11 -3 20 -11 20 -17 0 -15 55 -48 65 -38 5 4 5 2 2 -5 -5 -7 10 -12 46 -15 28 -3 55 -3 59 -1 3 2 -13 61 -37 131 -23 70 -46 152 -51 182 -8 61 -10 72 -19 115 -3 17 -7 41 -9 55 -2 21 -8 25 -37 25 -30 0 -33 -3 -34 -30 -3 -79 -32 -116 -92 -113 -23 1 -43 5 -43 9 0 5 -7 6 -15 3 -22 -9 -31 24 -12 43 14 14 14 18 2 27 -15 11 -10 60 5 51 5 -3 11 -1 14 4 4 5 -8 20 -26 32 -22 15 -28 17 -19 6 11 -15 11 -17 -2 -17 -8 0 -18 6 -21 13 -3 8 -5 7 -4 -3 3 -19 -21 -62 -30 -56 -5 3 -14 0 -22 -6 -12 -8 -12 -9 3 -4 9 3 17 1 17 -4 0 -11 -11 -13 -34 -4 -9 3 -13 10 -10 15 3 5 1 9 -4 9 -5 0 -9 7 -9 15 0 15 10 19 35 16 6 -1 16 9 22 23 14 37 64 59 114 52 22 -4 73 -10 112 -14 69 -7 72 -6 67 13 -2 11 -4 33 -4 50 0 16 -4 34 -8 40 -4 5 -7 42 -6 80 l0 70 175 3 c96 1 179 7 184 12 5 5 11 91 13 190 l3 180 -415 0 -415 0 0 -1600z m166 913 c-10 -10 -19 5 -10 18 6 11 8 11 12 0 2 -7 1 -15 -2 -18z m2018 -1951 c0 -16 4 -21 13 -18 8 3 11 1 8 -4 -3 -6 -14 -10 -23 -10 -13 0 -14 -2 -3 -9 9 -6 10 -11 2 -15 -14 -9 -51 2 -52 15 -1 5 -2 15 -3 22 -3 18 26 48 43 45 9 -2 16 -13 15 -26z m86 -206 c0 -6 -13 -19 -28 -28 -23 -14 -32 -15 -42 -5 -8 8 -11 8 -7 1 12 -21 -19 -34 -86 -39 -59 -4 -67 -2 -72 15 -4 11 -11 20 -16 20 -5 0 -9 5 -9 12 0 6 9 3 20 -7 14 -13 23 -15 32 -8 7 6 29 9 48 8 19 -1 47 4 62 11 15 8 30 14 33 14 20 -1 24 2 30 21 5 16 10 18 21 8 8 -6 14 -17 14 -23z"/>
 <path d="M1210 3185 c8 -10 9 -15 2 -15 -6 0 -9 -7 -6 -15 4 -9 0 -15 -9 -15 -8 0 -20 -7 -27 -15 -16 -19 -60 -19 -96 0 -17 8 -32 11 -39 5 -6 -5 -36 -3 -73 5 -34 7 -64 10 -66 6 -3 -4 -6 -70 -7 -147 -2 -132 7 -194 25 -165 6 8 94 11 319 11 l312 -1 5 146 c3 81 1 149 -3 152 -5 3 -7 18 -5 34 l5 29 -175 0 c-154 0 -173 -2 -162 -15z"/>
 <path d="M1935 3190 c3 -6 3 -19 0 -30 -10 -32 -65 -40 -188 -29 -60 6 -113 7 -116 2 -4 -4 -5 -72 -2 -151 l6 -144 202 2 c111 0 204 -3 207 -8 3 -5 24 -9 47 -9 23 0 45 -6 49 -13 9 -15 6 -88 -5 -112 -4 -10 -4 -25 -1 -34 4 -9 1 -23 -5 -31 -7 -7 -13 -44 -15 -80 -2 -37 -7 -69 -11 -72 -5 -3 -9 -24 -11 -46 -3 -56 -42 -234 -58 -272 -8 -17 -14 -35 -14 -41 0 -5 -9 -29 -19 -53 -35 -81 -36 -91 -9 -87 12 2 25 6 28 10 3 3 14 8 25 10 11 1 23 8 27 13 5 6 8 6 8 -2 0 -7 17 3 37 22 39 36 76 48 92 32 7 -7 15 -6 25 2 18 15 40 5 32 -15 -3 -8 -1 -14 4 -14 6 0 10 -4 10 -10 0 -8 -26 -16 -83 -24 -10 -1 -22 -7 -25 -12 -12 -17 -83 -46 -98 -40 -7 3 -13 0 -11 -6 1 -7 -3 -12 -10 -13 -6 0 -15 -3 -19 -7 -4 -4 -14 -2 -22 5 -10 7 -13 7 -9 1 4 -7 -11 -18 -39 -29 -36 -13 -49 -25 -60 -52 -13 -30 -17 -33 -32 -22 -14 11 -15 11 -5 -1 10 -11 8 -21 -9 -51 -12 -21 -25 -36 -29 -33 -4 2 -10 0 -14 -6 -3 -5 -1 -10 5 -10 7 0 9 -9 6 -22 -3 -13 -3 -17 0 -10 3 6 13 12 21 12 11 0 14 -7 11 -25 -3 -15 1 -30 10 -37 13 -10 14 -10 8 0 -11 18 5 14 21 -5 22 -29 55 -96 44 -88 -6 3 -11 1 -11 -4 0 -6 5 -11 11 -11 5 0 7 -4 4 -10 -3 -5 -2 -10 3 -10 9 0 31 -45 38 -80 1 -8 4 -50 5 -95 2 -68 0 -81 -14 -83 -10 -2 -17 -8 -17 -13 0 -6 4 -8 9 -5 5 4 11 0 14 -6 6 -21 -4 -48 -19 -48 -12 0 -18 -12 -16 -31 1 -4 -3 -21 -8 -38 -9 -31 -9 -31 31 -31 30 0 38 -3 33 -12 -6 -10 -4 -10 8 0 25 20 54 2 49 -30 0 -4 5 -5 12 -2 7 2 24 -7 37 -21 13 -14 29 -25 37 -25 7 0 13 -4 13 -9 0 -5 -13 -8 -30 -6 -16 2 -32 0 -35 -5 -4 -6 1 -7 11 -3 13 5 15 3 9 -7 -5 -9 -4 -11 3 -6 30 18 52 14 72 -14 23 -32 26 -44 8 -34 -7 4 -10 4 -6 -1 4 -4 2 -15 -4 -24 -7 -9 0 -5 15 8 15 14 27 19 27 13 0 -7 12 -18 26 -24 20 -10 24 -17 19 -37 -4 -18 -3 -22 4 -12 12 18 23 10 77 -60 28 -37 47 -72 48 -89 0 -16 4 -26 8 -24 12 7 10 1344 -1 1344 -14 0 -41 -29 -41 -43 0 -7 5 -6 11 3 9 12 9 11 2 -5 -4 -11 -8 -163 -8 -337 0 -175 -3 -318 -6 -318 -11 0 -18 -40 -8 -46 5 -3 9 -10 9 -15 0 -6 -4 -8 -9 -4 -5 3 -13 0 -17 -7 -11 -17 -12 -48 -2 -42 4 3 9 -4 9 -15 1 -12 2 -27 3 -33 1 -7 -5 -19 -14 -26 -13 -12 -13 -12 0 -6 12 5 11 3 -2 -11 -16 -18 -55 -14 -43 4 3 5 1 12 -5 16 -14 9 -13 26 2 23 8 -2 13 11 13 38 0 22 6 48 14 57 9 11 10 17 2 17 -16 0 -14 32 5 58 9 13 11 22 4 22 -6 0 -8 10 -4 24 3 13 1 27 -5 31 -6 3 -9 11 -5 16 10 16 11 189 2 195 -11 7 -8 263 3 269 3 3 7 16 7 31 0 14 6 30 13 35 11 7 9 9 -7 9 -23 0 -34 24 -29 65 1 14 -3 25 -9 25 -6 0 -16 11 -23 25 -16 35 4 44 30 14 l19 -24 -15 26 c-9 15 -13 30 -10 33 12 12 12 40 1 54 -13 16 6 34 27 26 7 -3 15 2 19 12 5 14 4 15 -9 4 -13 -10 -15 -9 -15 9 0 15 4 20 13 15 6 -4 4 2 -5 13 -20 22 -24 68 -8 78 8 5 7 11 -1 21 -9 11 -9 17 0 28 8 10 9 16 1 21 -15 9 -12 74 4 90 7 8 16 11 20 8 3 -4 6 -3 6 1 0 3 -12 11 -26 16 -25 10 -26 14 -22 61 3 29 0 65 -6 81 -8 23 -8 31 3 37 7 5 11 13 7 19 -3 5 0 12 8 15 10 4 11 17 4 63 -5 32 -8 138 -6 236 l3 178 -193 0 c-127 0 -191 -3 -187 -10z m465 -2150 c6 -9 4 -20 -5 -30 -7 -8 -15 -26 -17 -40 -4 -33 -21 -28 -31 9 -5 22 -14 31 -28 31 -13 0 -18 5 -14 13 4 6 -1 3 -10 -8 -14 -17 -17 -18 -25 -5 -8 12 -10 13 -10 1 0 -8 -2 -12 -5 -9 -3 3 -3 13 1 22 12 31 127 44 144 16z"/>
 <path d="M2360 990 c0 -7 3 -10 7 -7 3 4 3 10 0 14 -4 3 -7 0 -7 -7z"/>
 <path d="M2380 2996 c0 -164 -3 -205 -14 -209 -7 -3 -20 0 -27 6 -11 10 -11 9 0 -5 7 -10 11 -29 9 -43 -3 -14 -2 -28 3 -31 4 -2 5 -12 2 -21 -4 -11 -3 -14 5 -9 13 8 16 -6 5 -18 -5 -4 -8 -13 -8 -19 -1 -7 -6 -11 -13 -10 -6 2 -9 -4 -5 -13 5 -13 7 -13 14 -2 6 9 9 4 9 -14 0 -17 5 -28 13 -28 11 0 15 -27 7 -50 -1 -3 -1 -21 -1 -40 3 -62 2 -74 -4 -109 -5 -26 -9 -31 -16 -20 -6 10 -9 11 -9 1 0 -7 6 -15 13 -18 20 -7 21 -99 1 -129 -9 -13 -13 -29 -9 -35 3 -5 1 -10 -6 -10 -8 0 -8 -4 1 -15 7 -9 19 -14 25 -11 7 2 18 1 25 -4 10 -6 8 -12 -9 -26 -30 -26 -28 -52 4 -50 23 1 25 5 23 40 -1 21 -8 40 -15 43 -18 7 -16 23 2 23 13 0 15 64 15 515 0 508 0 515 -20 515 -19 0 -20 -7 -20 -204z"/>
 <path d="M1898 3153 c7 -3 16 -2 19 1 4 3 -2 6 -13 5 -11 0 -14 -3 -6 -6z"/>
 <path d="M1823 3143 c4 -3 10 -3 14 0 3 4 0 7 -7 7 -7 0 -10 -3 -7 -7z"/>
 <path d="M840 2850 c0 -7 3 -10 7 -7 3 4 3 10 0 14 -4 3 -7 0 -7 -7z"/>
 <path d="M1603 2833 c4 -3 10 -3 14 0 3 4 0 7 -7 7 -7 0 -10 -3 -7 -7z"/>
 <path d="M813 2803 c4 -3 10 -3 14 0 3 4 0 7 -7 7 -7 0 -10 -3 -7 -7z"/>
 <path d="M470 2710 c0 -7 3 -10 7 -7 3 4 3 10 0 14 -4 3 -7 0 -7 -7z"/>
 <path d="M2332 2690 c0 -14 2 -19 5 -12 2 6 2 18 0 25 -3 6 -5 1 -5 -13z"/>
 <path d="M2314 2648 c-4 -7 -3 -8 4 -4 7 4 12 9 12 12 0 8 -9 4 -16 -8z"/>
 <path d="M260 2550 c-9 -6 -10 -10 -3 -10 6 0 15 5 18 10 8 12 4 12 -15 0z"/>
 <path d="M195 2540 c-3 -6 1 -7 9 -4 18 7 21 14 7 14 -6 0 -13 -4 -16 -10z"/>
 <path d="M303 2543 c4 -3 10 -3 14 0 3 4 0 7 -7 7 -7 0 -10 -3 -7 -7z"/>
 <path d="M463 2533 c4 -3 10 -3 14 0 3 4 0 7 -7 7 -7 0 -10 -3 -7 -7z"/>
 <path d="M505 2510 c3 -5 8 -10 11 -10 3 0 2 5 -1 10 -3 6 -8 10 -11 10 -3 0 -2 -4 1 -10z"/>
 <path d="M294 2478 c-4 -7 -3 -8 4 -4 12 7 16 16 8 16 -3 0 -8 -5 -12 -12z"/>
 <path d="M307 2462 c-30 -33 -19 -61 30 -76 17 -5 23 -2 29 16 4 13 7 29 5 37 -1 7 2 10 8 6 6 -3 11 -1 11 4 0 6 -5 11 -11 11 -5 0 -8 4 -5 8 10 17 -51 11 -67 -6z"/>
 <path d="M2330 2460 c0 -7 3 -10 7 -7 3 4 3 10 0 14 -4 3 -7 0 -7 -7z"/>
 <path d="M2354 2417 c-1 -30 -1 -30 9 -9 6 14 7 26 1 32 -5 5 -9 -4 -10 -23z"/>
 <path d="M353 2363 c4 -3 10 -3 14 0 3 4 0 7 -7 7 -7 0 -10 -3 -7 -7z"/>
 <path d="M2020 2310 c0 -7 3 -10 7 -7 3 4 3 10 0 14 -4 3 -7 0 -7 -7z"/>
 <path d="M610 2130 c0 -7 3 -10 7 -7 3 4 3 10 0 14 -4 3 -7 0 -7 -7z"/>
 <path d="M2373 2123 c4 -3 10 -3 14 0 3 4 0 7 -7 7 -7 0 -10 -3 -7 -7z"/>
 <path d="M185 2100 c3 -5 8 -10 11 -10 2 0 4 5 4 10 0 6 -5 10 -11 10 -5 0 -7 -4 -4 -10z"/>
 <path d="M2343 2093 c4 -3 10 -3 14 0 3 4 0 7 -7 7 -7 0 -10 -3 -7 -7z"/>
 <path d="M614 2079 c-4 -7 -3 -9 4 -5 5 3 13 0 15 -6 4 -9 6 -10 6 -1 1 17 -16 25 -25 12z"/>
 <path d="M234 2058 c-4 -7 -3 -8 4 -4 12 7 16 16 8 16 -3 0 -8 -5 -12 -12z"/>
 <path d="M2210 2040 c0 -7 3 -10 7 -7 3 4 3 10 0 14 -4 3 -7 0 -7 -7z"/>
 <path d="M195 2029 c-4 -6 -5 -12 -2 -15 2 -3 7 2 10 11 7 17 1 20 -8 4z"/>
 <path d="M333 2033 c4 -3 10 -3 14 0 3 4 0 7 -7 7 -7 0 -10 -3 -7 -7z"/>
 <path d="M170 2020 c0 -7 3 -10 7 -7 3 4 3 10 0 14 -4 3 -7 0 -7 -7z"/>
 <path d="M2316 2004 c-4 -9 -4 -19 -1 -22 2 -3 7 3 11 12 4 9 4 19 1 22 -2 3 -7 -3 -11 -12z"/>
 <path d="M444 1988 c-4 -7 -3 -8 4 -4 12 7 16 16 8 16 -3 0 -8 -5 -12 -12z"/>
 <path d="M2051 1988 c-1 -10 -5 -18 -10 -18 -5 0 -11 -7 -15 -15 -4 -11 4 -8 24 7 28 20 42 37 21 24 -5 -4 -12 0 -14 6 -3 8 -6 6 -6 -4z"/>
 <path d="M485 1970 c-3 -6 1 -7 9 -4 18 7 21 14 7 14 -6 0 -13 -4 -16 -10z"/>
 <path d="M2330 1970 c0 -7 3 -10 7 -7 3 4 3 10 0 14 -4 3 -7 0 -7 -7z"/>
 <path d="M1963 1963 c4 -3 10 -3 14 0 3 4 0 7 -7 7 -7 0 -10 -3 -7 -7z"/>
 <path d="M1890 1890 c0 -7 3 -10 7 -7 3 4 3 10 0 14 -4 3 -7 0 -7 -7z"/>
 <path d="M1860 1870 c0 -7 3 -10 7 -7 3 4 3 10 0 14 -4 3 -7 0 -7 -7z"/>
 <path d="M703 1863 c4 -3 10 -3 14 0 3 4 0 7 -7 7 -7 0 -10 -3 -7 -7z"/>
 <path d="M782 1690 c-18 -29 -15 -38 4 -12 9 13 14 25 12 27 -2 2 -9 -5 -16 -15z"/>
 <path d="M1776 1692 c-2 -4 4 -8 14 -8 10 0 16 4 14 8 -3 4 -9 8 -14 8 -5 0 -11 -4 -14 -8z"/>
 <path d="M1876 1614 c-5 -13 -4 -14 7 -6 8 7 18 8 22 4 5 -4 5 -1 1 6 -10 17 -23 15 -30 -4z"/>
 <path d="M704 1528 c-4 -7 -3 -8 4 -4 12 7 16 16 8 16 -3 0 -8 -5 -12 -12z"/>
 <path d="M1930 1490 c0 -7 3 -10 7 -7 3 4 3 10 0 14 -4 3 -7 0 -7 -7z"/>
 <path d="M2335 1300 c3 -5 8 -10 11 -10 3 0 2 5 -1 10 -3 6 -8 10 -11 10 -3 0 -2 -4 1 -10z"/>
 <path d="M2325 1280 c3 -5 8 -10 11 -10 3 0 2 5 -1 10 -3 6 -8 10 -11 10 -3 0 -2 -4 1 -10z"/>
 <path d="M616 1187 c3 -10 9 -15 12 -12 3 3 0 11 -7 18 -10 9 -11 8 -5 -6z"/>
 <path d="M2330 1150 c0 -7 3 -10 7 -7 3 4 3 10 0 14 -4 3 -7 0 -7 -7z"/>
 <path d="M2304 1108 c-4 -7 -3 -8 4 -4 12 7 16 16 8 16 -3 0 -8 -5 -12 -12z"/>
 <path d="M2166 937 c3 -10 9 -15 12 -12 3 3 0 11 -7 18 -10 9 -11 8 -5 -6z"/>
 <path d="M703 903 c4 -3 10 -3 14 0 3 4 0 7 -7 7 -7 0 -10 -3 -7 -7z"/>
 <path d="M2164 898 c-4 -7 -3 -8 4 -4 12 7 16 16 8 16 -3 0 -8 -5 -12 -12z"/>
 <path d="M705 830 c3 -5 8 -10 11 -10 3 0 2 5 -1 10 -3 6 -8 10 -11 10 -3 0 -2 -4 1 -10z"/>
 <path d="M2295 810 c3 -5 8 -10 11 -10 2 0 4 5 4 10 0 6 -5 10 -11 10 -5 0 -7 -4 -4 -10z"/>
 <path d="M780 790 c0 -7 3 -10 7 -7 3 4 3 10 0 14 -4 3 -7 0 -7 -7z"/>
 <path d="M723 783 c4 -3 10 -3 14 0 3 4 0 7 -7 7 -7 0 -10 -3 -7 -7z"/>
 <path d="M2320 780 c0 -7 3 -10 7 -7 3 4 3 10 0 14 -4 3 -7 0 -7 -7z"/>
 <path d="M770 710 c0 -7 3 -10 7 -7 3 4 3 10 0 14 -4 3 -7 0 -7 -7z"/>
 <path d="M953 623 c4 -3 10 -3 14 0 3 4 0 7 -7 7 -7 0 -10 -3 -7 -7z"/>
 <path d="M1200 500 c0 -7 3 -10 7 -7 3 4 3 10 0 14 -4 3 -7 0 -7 -7z"/>
 <path d="M2296 411 c-4 -5 3 -7 14 -4 23 6 26 13 6 13 -8 0 -17 -4 -20 -9z"/>
 <path d="M2277 389 c7 -7 15 -10 18 -7 3 3 -2 9 -12 12 -14 6 -15 5 -6 -5z"/>
 <path d="M1925 380 c3 -5 8 -10 11 -10 3 0 2 5 -1 10 -3 6 -8 10 -11 10 -3 0 -2 -4 1 -10z"/>
 </g>
<g id="layer103" fill="#303030" stroke="none">
 <path d="M0 1600 l0 -1600 1210 0 1210 0 0 283 -1 282 -27 -67 c-15 -39 -32 -68 -40 -68 -8 0 -12 -6 -8 -15 3 -8 2 -15 -2 -15 -4 0 -32 -20 -62 -45 -30 -25 -73 -51 -95 -57 -22 -6 -44 -14 -50 -18 -23 -15 -86 -2 -110 24 -13 14 -28 26 -34 26 -5 0 -18 3 -28 7 -10 3 -15 3 -11 -2 4 -4 -2 -16 -14 -26 -23 -20 -63 -25 -73 -9 -3 6 -21 10 -38 10 -46 0 -52 8 -55 70 -6 102 -62 117 -117 31 -14 -23 -25 -45 -25 -51 0 -5 -8 -10 -17 -10 -9 0 -14 -3 -10 -6 3 -3 1 -12 -6 -18 -8 -9 -23 -10 -52 -4 -22 5 -59 11 -82 15 l-43 6 0 56 c0 78 -16 95 -100 111 -61 12 -94 -2 -110 -46 -8 -20 -14 -24 -33 -18 -31 9 -31 9 -18 45 15 44 14 82 -5 128 -18 45 -42 55 -87 36 -18 -8 -28 -14 -23 -15 5 0 -2 -10 -15 -23 -13 -12 -33 -35 -45 -50 l-20 -29 -48 37 c-26 20 -59 40 -72 45 -13 5 -29 21 -34 34 -5 14 -22 32 -38 40 -27 14 -50 51 -88 144 -9 23 -21 42 -26 42 -5 0 -8 8 -6 17 2 10 -5 27 -15 38 -10 11 -16 28 -13 39 3 11 0 26 -5 33 -23 27 -49 305 -33 341 4 10 6 23 5 30 -3 16 38 103 55 117 6 6 17 27 24 48 6 20 16 37 21 37 5 0 9 7 9 16 0 18 31 77 43 82 4 2 4 8 1 13 -3 6 -1 16 6 24 9 10 6 23 -10 55 -11 22 -29 49 -39 59 -11 11 -22 27 -25 38 -6 18 -81 43 -131 43 -11 0 -31 9 -45 20 -14 11 -30 20 -35 20 -6 0 -42 16 -80 36 -103 53 -119 56 -149 31 -34 -30 -96 -29 -107 1 -8 21 5 30 49 38 27 5 24 14 -18 64 -59 71 -38 106 28 47 19 -18 22 -18 22 -4 0 9 10 25 22 36 l21 21 16 -22 c8 -13 15 -36 16 -52 0 -29 1 -30 60 -40 33 -6 53 -17 59 -32 3 -8 11 -14 17 -14 7 0 26 -11 43 -24 35 -26 57 -35 111 -41 32 -5 37 -3 32 12 -3 10 -17 51 -31 90 -25 75 -69 261 -81 346 -6 44 -8 47 -36 47 -27 0 -29 -2 -29 -41 0 -50 -13 -75 -49 -93 -31 -16 -61 -16 -103 2 -27 11 -28 14 -23 69 2 32 9 59 15 61 20 7 10 22 -16 22 -27 0 -44 -13 -63 -48 -16 -30 -49 -28 -63 3 -10 22 -8 29 12 50 50 53 151 82 198 56 12 -6 46 -11 75 -9 l52 3 -3 35 c-4 63 -8 90 -15 97 -4 3 -7 30 -7 59 0 78 14 84 198 84 93 0 152 -4 159 -11 21 -21 27 15 30 193 l3 178 -415 0 -415 0 0 -1600z"/>
 <path d="M1218 3193 c19 -7 15 -18 -20 -52 -25 -25 -40 -31 -73 -31 -23 0 -45 3 -49 7 -6 7 -33 10 -151 16 l-29 2 2 -145 2 -145 322 -3 323 -2 -2 147 c-2 82 -3 163 -3 181 l0 32 -167 -1 c-93 0 -162 -3 -155 -6z"/>
 <path d="M1938 3168 c-2 -27 -8 -34 -28 -36 -14 -2 -29 -7 -34 -12 -4 -4 -21 -4 -36 0 -15 4 -70 9 -121 11 -89 4 -94 3 -91 -16 2 -11 4 -76 5 -145 l2 -125 254 -6 c269 -7 278 -8 261 -55 -5 -13 -7 -33 -5 -45 3 -12 0 -28 -5 -34 -5 -6 -9 -26 -8 -45 0 -37 -37 -250 -72 -410 -18 -86 -39 -150 -76 -235 -7 -16 -11 -31 -9 -33 7 -7 140 50 160 68 23 21 54 28 74 16 7 -5 16 -4 20 1 3 5 20 18 38 28 35 20 48 52 31 73 -9 10 -8 16 2 22 10 6 13 44 12 164 0 85 -3 160 -7 166 -4 6 -6 30 -5 53 1 23 1 45 0 50 -2 4 -4 12 -5 17 -1 6 -3 11 -5 13 -7 9 -7 38 1 43 5 3 7 10 4 15 -4 5 0 9 7 9 10 0 13 48 13 240 l0 240 -187 0 -187 0 -3 -32z"/>
 <path d="M2380 2996 c0 -169 -3 -206 -15 -216 -18 -15 -20 -61 -4 -77 7 -7 8 -19 4 -30 -13 -29 -14 -43 -3 -43 5 0 6 -9 3 -20 -4 -12 -1 -22 7 -25 16 -6 21 -104 9 -172 -5 -26 -6 -52 -2 -58 13 -19 5 -137 -10 -149 -23 -17 -22 -56 2 -56 10 0 19 5 19 10 0 6 7 10 15 10 13 0 15 64 15 515 0 508 0 515 -20 515 -19 0 -20 -7 -20 -204z"/>
 <path d="M305 2454 c-18 -27 -18 -28 10 -51 35 -31 57 -16 53 36 -4 47 -37 55 -63 15z"/>
 <path d="M2392 2109 c-28 -11 -25 -29 6 -40 20 -7 22 -5 22 21 0 17 -1 30 -2 29 -2 0 -14 -4 -26 -10z"/>
 <path d="M2220 2004 c-36 -14 -85 -35 -110 -47 -25 -12 -51 -21 -57 -20 -7 0 -13 -3 -13 -7 0 -4 -19 -10 -41 -14 -48 -8 -82 -40 -119 -110 -13 -26 -33 -54 -43 -61 -19 -13 -19 -14 2 -27 11 -7 21 -17 21 -22 0 -5 15 -27 33 -50 36 -44 67 -101 67 -123 0 -7 9 -30 20 -50 15 -29 20 -57 20 -119 0 -44 -3 -84 -6 -87 -4 -4 -8 -20 -9 -37 -2 -17 -9 -37 -18 -43 -18 -14 -29 -59 -21 -81 4 -11 19 -16 48 -16 34 0 50 -7 82 -35 21 -19 46 -37 54 -40 8 -3 35 -30 60 -59 25 -30 54 -59 65 -66 11 -6 43 -39 70 -72 28 -33 58 -69 68 -81 10 -12 16 -29 14 -39 -3 -10 -1 -18 4 -18 5 0 9 272 9 660 0 574 -2 660 -15 660 -9 0 -12 -6 -9 -15 4 -8 1 -22 -6 -30 -9 -11 -12 -99 -14 -329 0 -173 -4 -317 -8 -321 -4 -4 -3 -18 2 -31 5 -13 7 -25 5 -25 -3 -1 -8 -2 -12 -3 -29 -5 -31 -18 -14 -59 19 -44 15 -66 -19 -94 -21 -17 -23 -17 -42 18 -23 40 -24 67 -3 49 17 -14 16 -16 20 35 1 22 3 40 4 40 1 0 4 50 7 110 2 61 5 139 6 173 2 35 -1 66 -5 69 -11 7 -6 293 5 316 6 13 3 27 -11 50 -12 20 -18 42 -14 55 7 27 3 27 -77 -4z m177 -946 c12 -21 13 -42 1 -49 -6 -4 -11 -19 -12 -35 -1 -40 -21 -40 -46 0 -20 34 -23 35 -66 29 l-46 -6 29 30 c21 22 38 30 68 32 21 1 41 4 44 6 8 9 20 5 28 -7z"/>
 <path d="M2175 800 c-4 -6 -24 -18 -46 -27 -39 -15 -119 -95 -119 -118 0 -6 -11 -22 -25 -35 -14 -13 -25 -31 -24 -40 1 -8 0 -17 -1 -20 -1 -3 -4 -18 -6 -35 -2 -16 -7 -47 -10 -68 -7 -42 8 -81 39 -107 27 -23 137 -25 197 -5 28 9 50 21 50 25 0 5 24 28 54 50 30 22 57 48 60 58 4 9 15 33 26 52 10 19 19 50 20 68 0 36 -34 112 -51 112 -6 0 -8 4 -5 9 3 5 -1 11 -9 15 -8 3 -15 12 -15 20 0 29 -120 70 -135 46z m18 -231 c27 -37 -1 -77 -44 -64 -24 8 -33 39 -19 65 14 26 45 26 63 -1z"/>
 </g>
<g id="layer104" fill="#47385b" stroke="none">
 <path d="M0 1600 l0 -1600 1210 0 1210 0 0 283 -1 282 -18 -52 c-11 -28 -27 -64 -36 -80 -23 -40 -148 -131 -190 -139 -20 -3 -37 -10 -40 -14 -7 -11 -99 -2 -103 10 -14 41 -71 49 -97 13 -8 -11 -22 -14 -46 -10 -43 6 -109 24 -115 30 -3 2 -7 28 -11 57 -11 93 -66 114 -98 37 -7 -18 -28 -48 -47 -68 l-33 -36 -60 13 c-33 7 -72 13 -86 13 -25 1 -26 4 -28 53 0 28 -3 59 -6 68 -7 23 -50 42 -104 46 -49 5 -75 -11 -85 -50 -5 -19 -11 -22 -31 -18 -35 6 -37 13 -23 71 9 39 9 60 -1 91 -23 78 -74 76 -148 -5 l-49 -53 -49 31 c-27 18 -65 41 -84 52 -20 12 -35 27 -34 35 1 8 -15 27 -35 41 -24 16 -42 39 -50 65 -21 62 -44 114 -52 114 -12 0 -38 72 -49 135 -6 33 -13 76 -17 95 -13 73 -15 217 -4 270 6 30 33 91 59 135 26 44 57 105 70 135 13 30 28 60 33 67 11 14 -12 65 -47 103 -13 14 -25 34 -29 45 -4 15 -21 24 -59 33 -29 6 -59 12 -67 12 -8 0 -46 15 -85 34 -38 18 -100 47 -137 64 l-66 31 -28 -24 c-37 -32 -107 -31 -112 2 -3 20 13 32 56 39 27 5 24 14 -17 60 -22 26 -41 53 -41 61 0 26 31 26 59 -1 l27 -26 13 35 c7 19 18 35 24 35 16 0 46 -50 44 -74 -2 -14 11 -23 50 -36 29 -9 76 -35 106 -58 52 -39 121 -67 139 -56 14 9 9 49 -16 131 -35 116 -43 148 -62 261 -18 100 -19 102 -46 102 -26 0 -28 -2 -28 -45 0 -36 -6 -51 -29 -75 -23 -25 -36 -30 -74 -30 -62 0 -77 17 -77 90 0 38 4 60 12 63 7 2 10 7 7 11 -11 12 -66 -15 -77 -39 -15 -33 -49 -33 -64 0 -10 22 -8 29 12 50 50 53 151 82 198 56 12 -6 46 -11 75 -9 l52 3 -3 35 c-4 63 -8 90 -15 97 -4 3 -7 32 -7 64 0 47 4 60 19 69 12 6 92 10 190 10 l171 0 0 180 0 180 -410 0 -410 0 0 -1600z"/>
 <path d="M1230 3175 c0 -18 -10 -32 -32 -46 -28 -17 -43 -19 -98 -14 -36 3 -95 8 -132 12 l-68 6 0 -147 0 -146 320 0 320 0 0 149 c0 82 -3 163 -6 180 l-6 31 -149 0 -149 0 0 -25z"/>
 <path d="M1955 3185 c-3 -8 -7 -22 -10 -30 -7 -25 -70 -45 -107 -34 -18 5 -73 9 -122 9 -76 0 -87 -2 -82 -16 3 -9 6 -73 6 -144 l0 -128 251 -4 c274 -4 275 -4 264 -63 -11 -68 -15 -91 -19 -120 -25 -181 -95 -509 -130 -607 -13 -38 -22 -68 -20 -68 9 0 129 61 143 73 9 8 42 19 73 26 64 14 103 49 92 83 -3 10 -1 24 4 31 14 16 17 305 5 337 -6 14 -13 57 -17 97 -5 57 -3 75 9 87 12 12 15 54 15 250 l0 236 -175 0 c-147 0 -176 -2 -180 -15z"/>
 <path d="M2390 2999 c0 -163 -3 -203 -15 -215 -20 -20 -12 -184 10 -200 9 -7 12 -21 9 -40 -3 -16 -6 -94 -8 -174 -1 -80 -6 -152 -11 -160 -12 -20 -16 -60 -4 -60 5 0 9 4 9 9 0 5 9 11 20 14 20 5 20 14 20 516 0 448 -2 511 -15 511 -13 0 -15 -29 -15 -201z"/>
 <path d="M315 2456 c-18 -26 -11 -52 16 -67 16 -8 21 -5 29 16 12 32 3 75 -16 75 -7 0 -20 -11 -29 -24z"/>
 <path d="M2393 2103 c-21 -8 -15 -33 7 -33 13 0 20 7 20 20 0 20 -5 23 -27 13z"/>
 <path d="M2230 2006 c-108 -46 -206 -84 -249 -97 -38 -12 -49 -22 -83 -79 -21 -36 -48 -73 -59 -82 l-20 -17 20 -13 c12 -7 21 -16 21 -21 0 -4 23 -36 50 -71 28 -35 50 -70 50 -77 0 -8 9 -39 21 -69 27 -70 24 -224 -5 -280 -10 -19 -19 -42 -21 -50 -2 -8 -4 -19 -5 -25 -6 -28 2 -35 43 -35 34 0 54 -7 87 -32 24 -18 52 -40 64 -48 12 -8 28 -23 36 -34 21 -28 110 -117 140 -141 14 -11 42 -47 63 -80 l37 -59 0 157 c0 101 -4 157 -10 157 -11 0 -14 -7 -24 -52 -7 -29 -36 -39 -36 -13 0 9 -7 27 -16 40 -14 22 -21 24 -60 18 -51 -7 -55 1 -17 31 36 28 121 39 146 18 16 -14 17 9 17 466 0 379 -3 482 -12 482 -19 0 -20 -24 -22 -378 0 -177 -5 -322 -9 -322 -5 0 -8 -10 -7 -22 4 -39 0 -49 -12 -42 -11 7 -9 -13 7 -79 6 -21 1 -32 -20 -52 -37 -33 -51 -32 -64 6 -15 43 -14 59 3 53 10 -4 12 4 9 35 -2 23 0 41 5 41 10 0 10 -3 11 354 1 180 5 295 12 308 8 15 6 26 -7 46 -10 15 -20 39 -23 54 l-6 27 -55 -23z"/>
 <path d="M2145 779 c-33 -14 -69 -37 -81 -50 -32 -36 -95 -136 -99 -156 -2 -10 -4 -18 -5 -18 -1 0 -4 -13 -6 -30 -2 -16 -7 -47 -10 -67 -13 -80 41 -128 144 -128 73 0 132 25 167 70 17 22 35 39 41 40 28 1 94 113 94 160 0 36 -35 110 -52 110 -6 0 -9 3 -5 6 5 6 -70 83 -83 85 -35 5 -55 1 -105 -22z m49 -205 c20 -20 20 -38 0 -59 -27 -27 -83 -5 -84 32 0 18 29 43 50 43 10 0 26 -7 34 -16z"/>
 </g>
<g id="layer105" fill="#4e356d" stroke="none">
 <path d="M0 1600 l0 -1600 1210 0 1210 0 0 283 -1 282 -18 -52 c-11 -28 -27 -64 -36 -80 -23 -40 -148 -131 -190 -139 -20 -3 -37 -10 -40 -14 -7 -11 -99 -2 -103 10 -14 41 -71 49 -97 13 -8 -11 -22 -14 -46 -10 -43 6 -109 24 -115 30 -3 2 -7 28 -11 57 -11 93 -66 114 -98 37 -7 -18 -28 -48 -47 -68 l-33 -36 -65 14 c-76 16 -126 14 -122 -5 4 -19 -27 -74 -38 -67 -7 4 -6 13 0 26 6 11 8 25 4 31 -4 7 -3 8 4 4 7 -4 14 3 18 19 3 14 10 25 15 25 5 0 9 9 9 21 0 12 -4 17 -11 14 -6 -4 -5 3 3 15 10 18 10 24 1 27 -7 3 -13 13 -13 24 0 17 -12 23 -47 22 -7 -1 -13 2 -13 6 0 3 -11 7 -25 7 -14 1 -25 -2 -25 -7 0 -5 -7 -9 -15 -9 -8 0 -15 -7 -15 -15 0 -8 -4 -15 -10 -15 -5 0 -10 -10 -10 -22 -1 -32 -24 -60 -38 -46 -6 6 -8 17 -5 25 4 9 -3 22 -16 32 -20 16 -21 20 -10 69 10 40 10 60 0 92 -23 78 -74 76 -148 -5 l-49 -53 -49 31 c-27 18 -65 41 -84 52 -20 12 -35 27 -34 35 1 8 -15 27 -35 41 -24 16 -42 39 -50 65 -21 62 -44 114 -52 114 -12 0 -38 72 -49 135 -6 33 -13 76 -17 95 -13 73 -15 217 -4 270 6 30 33 91 59 135 26 44 57 105 70 135 13 30 28 60 33 67 11 14 -12 65 -47 103 -13 14 -25 34 -29 45 -4 15 -21 24 -59 33 -29 6 -59 12 -67 12 -8 0 -46 15 -85 34 -38 18 -100 47 -137 64 l-66 31 -28 -24 c-37 -32 -107 -31 -112 2 -3 20 13 32 56 39 27 5 24 14 -17 60 -22 26 -41 53 -41 61 0 26 31 26 59 -1 l27 -26 13 35 c7 19 18 35 24 35 16 0 46 -50 44 -74 -2 -14 11 -23 50 -36 29 -9 76 -35 106 -58 52 -39 121 -67 139 -56 14 9 9 49 -16 131 -35 116 -43 148 -62 261 -18 100 -19 102 -46 102 -26 0 -28 -2 -28 -45 0 -36 -6 -51 -29 -75 -23 -25 -36 -30 -74 -30 -62 0 -77 17 -77 90 0 38 4 60 12 63 7 2 10 7 7 11 -11 12 -66 -15 -77 -39 -15 -33 -49 -33 -64 0 -10 22 -8 29 12 50 50 53 151 82 198 56 12 -6 46 -11 75 -9 l52 3 -3 35 c-4 63 -8 90 -15 97 -4 3 -7 32 -7 64 0 47 4 60 19 69 12 6 92 10 190 10 l171 0 0 180 0 180 -410 0 -410 0 0 -1600z m1397 -1227 c-4 -3 -10 -3 -14 0 -3 4 0 7 7 7 7 0 10 -3 7 -7z m-199 -24 c-2 -6 -8 -10 -13 -10 -5 0 -11 4 -13 10 -2 6 4 11 13 11 9 0 15 -5 13 -11z m-1 -51 c-3 -8 -6 -5 -6 6 -1 11 2 17 5 13 3 -3 4 -12 1 -19z m89 -52 c38 5 44 4 44 -11 0 -15 -7 -17 -40 -12 -22 3 -43 1 -46 -4 -8 -13 -19 -11 -45 10 -20 16 -21 21 -11 34 12 14 15 14 33 -4 17 -17 28 -19 65 -13z"/>
 <path d="M1230 3175 c0 -18 -10 -32 -32 -46 -28 -17 -43 -19 -98 -14 -36 3 -95 8 -132 12 l-68 6 0 -147 0 -146 320 0 320 0 0 149 c0 82 -3 163 -6 180 l-6 31 -149 0 -149 0 0 -25z"/>
 <path d="M1955 3185 c-3 -8 -7 -22 -10 -30 -7 -25 -70 -45 -107 -34 -18 5 -73 9 -122 9 -76 0 -87 -2 -82 -16 3 -9 6 -73 6 -144 l0 -128 251 -4 c274 -4 275 -4 264 -63 -11 -68 -15 -91 -19 -120 -25 -181 -95 -509 -130 -607 -13 -38 -22 -68 -20 -68 9 0 129 61 143 73 9 8 42 19 73 26 64 14 103 49 92 83 -3 10 -1 24 4 31 14 16 17 305 5 337 -6 14 -13 57 -17 97 -5 57 -3 75 9 87 12 12 15 54 15 250 l0 236 -175 0 c-147 0 -176 -2 -180 -15z"/>
 <path d="M2390 2999 c0 -163 -3 -203 -15 -215 -20 -20 -12 -184 10 -200 9 -7 12 -21 9 -40 -3 -16 -6 -94 -8 -174 -1 -80 -6 -152 -11 -160 -12 -20 -16 -60 -4 -60 5 0 9 4 9 9 0 5 9 11 20 14 20 5 20 14 20 516 0 448 -2 511 -15 511 -13 0 -15 -29 -15 -201z"/>
 <path d="M315 2456 c-13 -19 -14 -29 -5 -45 23 -43 67 -7 54 44 -8 32 -29 32 -49 1z"/>
 <path d="M2393 2103 c-21 -8 -15 -33 7 -33 13 0 20 7 20 20 0 20 -5 23 -27 13z"/>
 <path d="M2230 2006 c-108 -46 -206 -84 -249 -97 -38 -12 -49 -22 -83 -79 -21 -36 -48 -73 -59 -82 l-20 -17 20 -13 c12 -7 21 -16 21 -21 0 -4 23 -36 50 -71 28 -35 50 -70 50 -77 0 -8 9 -39 21 -69 27 -70 24 -224 -5 -280 -10 -19 -19 -42 -21 -50 -2 -8 -4 -19 -5 -25 -6 -28 2 -35 43 -35 34 0 54 -7 87 -32 24 -18 52 -40 64 -48 12 -8 28 -23 36 -34 21 -28 110 -117 140 -141 14 -11 42 -47 63 -80 l37 -59 0 157 c0 101 -4 157 -10 157 -11 0 -14 -7 -24 -52 -7 -29 -36 -39 -36 -13 0 9 -7 27 -16 40 -14 22 -21 24 -60 18 -51 -7 -55 1 -17 31 36 28 121 39 146 18 16 -14 17 9 17 466 0 379 -3 482 -12 482 -19 0 -20 -24 -22 -378 0 -177 -5 -322 -9 -322 -5 0 -8 -10 -7 -22 4 -39 0 -49 -12 -42 -11 7 -9 -13 7 -79 6 -21 1 -32 -20 -52 -37 -33 -51 -32 -64 6 -15 43 -14 59 3 53 10 -4 12 4 9 35 -2 23 0 41 5 41 10 0 10 -3 11 354 1 180 5 295 12 308 8 15 6 26 -7 46 -10 15 -20 39 -23 54 l-6 27 -55 -23z"/>
 <path d="M2145 779 c-33 -14 -69 -37 -81 -50 -32 -36 -95 -136 -99 -156 -2 -10 -4 -18 -5 -18 -1 0 -4 -13 -6 -30 -2 -16 -7 -47 -10 -67 -13 -80 41 -128 144 -128 73 0 132 25 167 70 17 22 35 39 41 40 28 1 94 113 94 160 0 36 -35 110 -52 110 -6 0 -9 3 -5 6 5 6 -70 83 -83 85 -35 5 -55 1 -105 -22z m49 -205 c20 -20 20 -38 0 -59 -27 -27 -83 -5 -84 32 0 18 29 43 50 43 10 0 26 -7 34 -16z"/>
 </g>
<g id="layer106" fill="#925f1f" stroke="none">
 <path d="M0 1600 l0 -1600 1210 0 1210 0 0 283 -1 282 -18 -52 c-11 -28 -27 -64 -36 -80 -23 -40 -148 -131 -190 -139 -20 -3 -37 -10 -40 -14 -7 -11 -99 -2 -103 10 -14 41 -71 49 -97 13 -8 -11 -22 -14 -46 -10 -43 6 -109 24 -115 30 -3 2 -7 28 -11 57 -11 93 -66 114 -98 37 -7 -18 -28 -48 -47 -68 l-33 -36 -69 14 c-90 19 -107 13 -128 -39 -20 -47 -43 -62 -117 -72 -63 -9 -86 9 -95 73 -4 30 -2 69 5 93 10 38 9 43 -10 58 -20 15 -21 19 -10 68 10 40 10 60 0 92 -23 78 -74 76 -148 -5 l-49 -53 -49 31 c-27 18 -65 41 -84 52 -20 12 -35 27 -34 35 1 8 -15 27 -35 41 -24 16 -42 39 -50 65 -21 62 -44 114 -52 114 -12 0 -38 72 -49 135 -6 33 -13 76 -17 95 -13 73 -15 217 -4 270 6 30 33 91 59 135 26 44 57 105 70 135 13 30 28 60 33 67 11 14 -12 65 -47 103 -13 14 -25 34 -29 45 -4 15 -21 24 -59 33 -29 6 -59 12 -67 12 -8 0 -46 15 -85 34 -38 18 -100 47 -137 64 l-66 31 -28 -24 c-37 -32 -107 -31 -112 2 -3 20 13 32 56 39 27 5 24 14 -17 60 -22 26 -41 53 -41 61 0 26 31 26 59 -1 l27 -26 13 35 c7 19 18 35 24 35 16 0 46 -50 44 -74 -2 -14 11 -23 50 -36 29 -9 76 -35 106 -58 52 -39 121 -67 139 -56 14 9 9 49 -16 131 -35 116 -43 148 -62 261 -18 100 -19 102 -46 102 -26 0 -28 -2 -28 -45 0 -36 -6 -51 -29 -75 -23 -25 -36 -30 -74 -30 -62 0 -77 17 -77 90 0 38 4 60 12 63 7 2 10 7 7 11 -11 12 -66 -15 -77 -39 -15 -33 -49 -33 -64 0 -10 22 -8 29 12 50 50 53 151 82 198 56 12 -6 46 -11 75 -9 l52 3 -3 35 c-4 63 -8 90 -15 97 -4 3 -7 32 -7 64 0 47 4 60 19 69 12 6 92 10 190 10 l171 0 0 180 0 180 -410 0 -410 0 0 -1600z"/>
 <path d="M1230 3175 c0 -18 -10 -32 -32 -46 -28 -17 -43 -19 -98 -14 -36 3 -95 8 -132 12 l-68 6 0 -147 0 -146 320 0 320 0 0 149 c0 82 -3 163 -6 180 l-6 31 -149 0 -149 0 0 -25z"/>
 <path d="M1955 3185 c-3 -8 -7 -22 -10 -30 -7 -25 -70 -45 -107 -34 -18 5 -73 9 -122 9 -76 0 -87 -2 -82 -16 3 -9 6 -73 6 -144 l0 -128 251 -4 c274 -4 275 -4 264 -63 -11 -68 -15 -91 -19 -120 -25 -181 -95 -509 -130 -607 -13 -38 -22 -68 -20 -68 9 0 129 61 143 73 9 8 42 19 73 26 64 14 103 49 92 83 -3 10 -1 24 4 31 14 16 17 305 5 337 -6 14 -13 57 -17 97 -5 57 -3 75 9 87 12 12 15 54 15 250 l0 236 -175 0 c-147 0 -176 -2 -180 -15z"/>
 <path d="M2390 2999 c0 -163 -3 -203 -15 -215 -20 -20 -12 -184 10 -200 9 -7 12 -21 9 -40 -3 -16 -6 -94 -8 -174 -1 -80 -6 -152 -11 -160 -12 -20 -16 -60 -4 -60 5 0 9 4 9 9 0 5 9 11 20 14 20 5 20 14 20 516 0 448 -2 511 -15 511 -13 0 -15 -29 -15 -201z"/>
 <path d="M315 2456 c-13 -19 -14 -29 -5 -45 23 -43 67 -7 54 44 -8 32 -29 32 -49 1z"/>
 <path d="M2393 2103 c-21 -8 -15 -33 7 -33 13 0 20 7 20 20 0 20 -5 23 -27 13z"/>
 <path d="M2230 2006 c-108 -46 -206 -84 -249 -97 -38 -12 -49 -22 -83 -79 -21 -36 -48 -73 -59 -82 l-20 -17 20 -13 c12 -7 21 -16 21 -21 0 -4 23 -36 50 -71 28 -35 50 -70 50 -77 0 -8 9 -39 21 -69 27 -70 24 -224 -5 -280 -10 -19 -19 -42 -21 -50 -2 -8 -4 -19 -5 -25 -6 -28 2 -35 43 -35 34 0 54 -7 87 -32 24 -18 52 -40 64 -48 12 -8 28 -23 36 -34 21 -28 110 -117 140 -141 14 -11 42 -47 63 -80 l37 -59 0 157 c0 101 -4 157 -10 157 -11 0 -14 -7 -24 -52 -7 -29 -36 -39 -36 -13 0 9 -7 27 -16 40 -14 22 -21 24 -60 18 -51 -7 -55 1 -17 31 36 28 121 39 146 18 16 -14 17 9 17 466 0 379 -3 482 -12 482 -19 0 -20 -24 -22 -378 0 -177 -5 -322 -9 -322 -5 0 -8 -10 -7 -22 4 -39 0 -49 -12 -42 -11 7 -9 -13 7 -79 6 -21 1 -32 -20 -52 -37 -33 -51 -32 -64 6 -15 43 -14 59 3 53 10 -4 12 4 9 35 -2 23 0 41 5 41 10 0 10 -3 11 354 1 180 5 295 12 308 8 15 6 26 -7 46 -10 15 -20 39 -23 54 l-6 27 -55 -23z"/>
 <path d="M2145 779 c-33 -14 -69 -37 -81 -50 -32 -36 -95 -136 -99 -156 -2 -10 -4 -18 -5 -18 -1 0 -4 -13 -6 -30 -2 -16 -7 -47 -10 -67 -13 -80 41 -128 144 -128 73 0 132 25 167 70 17 22 35 39 41 40 28 1 94 113 94 160 0 36 -35 110 -52 110 -6 0 -9 3 -5 6 5 6 -70 83 -83 85 -35 5 -55 1 -105 -22z m49 -205 c20 -20 20 -38 0 -59 -27 -27 -83 -5 -84 32 0 18 29 43 50 43 10 0 26 -7 34 -16z"/>
 </g>
<g id="layer107" fill="#8e642b" stroke="none">
 <path d="M0 1600 l0 -1600 1210 0 1210 0 0 283 -1 282 -18 -52 c-11 -28 -27 -64 -36 -80 -23 -40 -148 -131 -190 -139 -20 -3 -37 -10 -40 -14 -7 -11 -99 -2 -103 10 -14 41 -71 49 -97 13 -8 -11 -22 -14 -46 -10 -43 6 -109 24 -115 30 -3 2 -7 28 -11 57 -11 93 -66 114 -98 37 -7 -18 -28 -48 -47 -68 l-33 -36 -69 14 c-90 19 -107 13 -128 -39 -20 -47 -43 -62 -117 -72 -63 -9 -86 9 -95 73 -4 30 -2 69 5 93 10 38 9 43 -10 58 -20 15 -21 19 -10 68 10 40 10 60 0 92 -23 78 -74 76 -148 -5 l-49 -53 -49 31 c-27 18 -65 41 -84 52 -20 12 -35 27 -34 35 1 8 -15 27 -35 41 -24 16 -42 39 -50 65 -21 62 -44 114 -52 114 -12 0 -38 72 -49 135 -6 33 -13 76 -17 95 -13 73 -15 217 -4 270 6 30 33 91 59 135 26 44 57 105 70 135 13 30 28 60 33 67 11 14 -12 65 -47 103 -13 14 -25 34 -29 45 -4 15 -21 24 -59 33 -29 6 -59 12 -67 12 -8 0 -46 15 -85 34 -38 18 -100 47 -137 64 l-66 31 -28 -24 c-37 -32 -107 -31 -112 2 -3 20 13 32 56 39 27 5 24 14 -17 60 -22 26 -41 53 -41 61 0 26 31 26 59 -1 l27 -26 13 35 c7 19 18 35 24 35 16 0 46 -50 44 -74 -2 -14 11 -23 50 -36 29 -9 76 -35 106 -58 52 -39 121 -67 139 -56 14 9 9 49 -16 131 -35 116 -43 148 -62 261 -18 100 -19 102 -46 102 -26 0 -28 -2 -28 -45 0 -36 -6 -51 -29 -75 -23 -25 -36 -30 -74 -30 -62 0 -77 17 -77 90 0 38 4 60 12 63 7 2 10 7 7 11 -11 12 -66 -15 -77 -39 -15 -33 -49 -33 -64 0 -10 22 -8 29 12 50 50 53 151 82 198 56 12 -6 46 -11 75 -9 l52 3 -3 35 c-4 63 -8 90 -15 97 -4 3 -7 32 -7 64 0 47 4 60 19 69 12 6 92 10 190 10 l171 0 0 180 0 180 -410 0 -410 0 0 -1600z m1127 -991 c-3 -11 -2 -17 3 -14 23 14 15 -84 -9 -108 -6 -6 -11 -25 -11 -42 0 -31 -30 -72 -43 -59 -3 3 -3 -5 -1 -18 5 -23 5 -23 -11 -3 -11 12 -16 14 -13 5 4 -14 -13 -40 -26 -40 -3 0 -15 9 -26 20 -23 23 -29 109 -7 111 10 0 10 2 0 6 -26 10 -13 33 20 34 30 2 30 2 5 6 -16 2 -28 8 -28 13 0 5 7 7 15 4 8 -4 16 -1 16 5 1 6 2 15 3 21 1 11 24 37 60 67 30 25 60 20 53 -8z"/>
 <path d="M1093 589 c4 -13 7 -37 7 -54 1 -26 2 -27 11 -12 12 20 3 73 -13 83 -8 5 -9 -1 -5 -17z"/>
 <path d="M1035 490 c-3 -5 1 -10 10 -10 9 0 13 5 10 10 -3 6 -8 10 -10 10 -2 0 -7 -4 -10 -10z"/>
 <path d="M993 483 c4 -3 10 -3 14 0 3 4 0 7 -7 7 -7 0 -10 -3 -7 -7z"/>
 <path d="M1230 3175 c0 -18 -10 -32 -32 -46 -28 -17 -43 -19 -98 -14 -36 3 -95 8 -132 12 l-68 6 0 -147 0 -146 320 0 320 0 0 149 c0 82 -3 163 -6 180 l-6 31 -149 0 -149 0 0 -25z"/>
 <path d="M1955 3185 c-3 -8 -7 -22 -10 -30 -7 -25 -70 -45 -107 -34 -18 5 -73 9 -122 9 -76 0 -87 -2 -82 -16 3 -9 6 -73 6 -144 l0 -128 251 -4 c274 -4 275 -4 264 -63 -11 -68 -15 -91 -19 -120 -25 -181 -95 -509 -130 -607 -13 -38 -22 -68 -20 -68 9 0 129 61 143 73 9 8 42 19 73 26 64 14 103 49 92 83 -3 10 -1 24 4 31 14 16 17 305 5 337 -6 14 -13 57 -17 97 -5 57 -3 75 9 87 12 12 15 54 15 250 l0 236 -175 0 c-147 0 -176 -2 -180 -15z"/>
 <path d="M2390 2999 c0 -163 -3 -203 -15 -215 -20 -20 -12 -184 10 -200 9 -7 12 -21 9 -40 -3 -16 -6 -94 -8 -174 -1 -80 -6 -152 -11 -160 -12 -20 -16 -60 -4 -60 5 0 9 4 9 9 0 5 9 11 20 14 20 5 20 14 20 516 0 448 -2 511 -15 511 -13 0 -15 -29 -15 -201z"/>
 <path d="M315 2456 c-13 -19 -14 -29 -5 -45 23 -43 67 -7 54 44 -8 32 -29 32 -49 1z"/>
 <path d="M2393 2103 c-21 -8 -15 -33 7 -33 13 0 20 7 20 20 0 20 -5 23 -27 13z"/>
 <path d="M2230 2006 c-108 -46 -206 -84 -249 -97 -38 -12 -49 -22 -83 -79 -21 -36 -48 -73 -59 -82 l-20 -17 20 -13 c12 -7 21 -16 21 -21 0 -4 23 -36 50 -71 28 -35 50 -70 50 -77 0 -8 9 -39 21 -69 27 -70 24 -224 -5 -280 -10 -19 -19 -42 -21 -50 -2 -8 -4 -19 -5 -25 -6 -28 2 -35 43 -35 34 0 54 -7 87 -32 24 -18 52 -40 64 -48 12 -8 28 -23 36 -34 21 -28 110 -117 140 -141 14 -11 42 -47 63 -80 l37 -59 0 157 c0 101 -4 157 -10 157 -11 0 -14 -7 -24 -52 -7 -29 -36 -39 -36 -13 0 9 -7 27 -16 40 -14 22 -21 24 -60 18 -51 -7 -55 1 -17 31 36 28 121 39 146 18 16 -14 17 9 17 466 0 379 -3 482 -12 482 -19 0 -20 -24 -22 -378 0 -177 -5 -322 -9 -322 -5 0 -8 -10 -7 -22 4 -39 0 -49 -12 -42 -11 7 -9 -13 7 -79 6 -21 1 -32 -20 -52 -37 -33 -51 -32 -64 6 -15 43 -14 59 3 53 10 -4 12 4 9 35 -2 23 0 41 5 41 10 0 10 -3 11 354 1 180 5 295 12 308 8 15 6 26 -7 46 -10 15 -20 39 -23 54 l-6 27 -55 -23z"/>
 <path d="M2145 779 c-33 -14 -69 -37 -81 -50 -32 -36 -95 -136 -99 -156 -2 -10 -4 -18 -5 -18 -1 0 -4 -13 -6 -30 -2 -16 -7 -47 -10 -67 -13 -80 41 -128 144 -128 73 0 132 25 167 70 17 22 35 39 41 40 28 1 94 113 94 160 0 36 -35 110 -52 110 -6 0 -9 3 -5 6 5 6 -70 83 -83 85 -35 5 -55 1 -105 -22z m49 -205 c20 -20 20 -38 0 -59 -27 -27 -83 -5 -84 32 0 18 29 43 50 43 10 0 26 -7 34 -16z"/>
 </g>
<g id="layer108" fill="#3db952" stroke="none">
 <path d="M0 1600 l0 -1600 1210 0 1210 0 0 283 -1 282 -18 -52 c-11 -28 -27 -64 -36 -80 -21 -36 -131 -120 -176 -134 -19 -5 -41 -14 -49 -18 -8 -4 -31 -6 -50 -5 -19 1 -41 3 -48 3 -7 1 -16 9 -19 19 -14 37 -43 42 -72 11 -15 -17 -28 -20 -58 -16 -43 6 -112 23 -119 30 -3 2 -7 28 -11 57 -11 93 -66 114 -98 37 -7 -18 -28 -48 -47 -68 l-33 -36 -69 14 c-90 19 -107 13 -128 -39 -20 -47 -44 -62 -119 -72 -68 -10 -89 11 -92 89 -1 33 2 75 6 92 8 29 6 34 -16 44 -17 8 -23 17 -19 27 5 14 4 14 -9 3 -8 -8 -15 -24 -15 -38 -2 -30 -46 -98 -76 -117 -29 -19 -75 -10 -92 18 -19 31 -4 175 20 193 10 7 16 13 13 14 -28 5 -42 11 -79 35 -24 16 -59 38 -79 49 -20 12 -35 27 -34 35 1 8 -15 27 -35 41 -24 16 -42 39 -50 65 -21 62 -44 114 -52 114 -12 0 -38 72 -49 135 -6 33 -13 76 -17 95 -13 73 -15 217 -4 270 6 30 33 91 59 135 26 44 57 105 70 135 13 30 28 60 33 67 11 14 -12 65 -47 103 -13 14 -25 34 -29 45 -4 15 -21 24 -59 33 -29 6 -59 12 -67 12 -8 0 -46 15 -85 34 -38 18 -100 47 -137 64 l-66 31 -28 -24 c-37 -32 -107 -31 -112 2 -3 20 13 32 56 39 27 5 24 14 -17 60 -22 26 -41 53 -41 61 0 26 31 26 59 -1 l27 -26 13 35 c7 19 18 35 24 35 16 0 46 -50 44 -74 -2 -14 11 -23 50 -36 29 -9 76 -35 106 -58 52 -39 121 -67 139 -56 14 9 9 49 -16 131 -35 116 -43 148 -62 261 -18 100 -19 102 -46 102 -26 0 -28 -2 -28 -45 0 -36 -6 -51 -29 -75 -23 -25 -36 -30 -74 -30 -62 0 -77 17 -77 90 0 38 4 60 12 63 7 2 10 7 7 11 -11 12 -66 -15 -77 -39 -15 -33 -49 -33 -64 0 -10 22 -8 29 12 50 50 53 151 82 198 56 12 -6 46 -11 75 -9 l52 3 -3 35 c-4 63 -8 90 -15 97 -4 3 -7 32 -7 64 0 47 4 60 19 69 12 6 92 10 190 10 l171 0 0 180 0 180 -410 0 -410 0 0 -1600z"/>
 <path d="M1230 3175 c0 -18 -10 -32 -32 -46 -28 -17 -43 -19 -98 -14 -36 3 -95 8 -132 12 l-68 6 0 -147 0 -146 320 0 320 0 0 149 c0 82 -3 163 -6 180 l-6 31 -149 0 -149 0 0 -25z"/>
 <path d="M1955 3185 c-3 -8 -7 -22 -10 -30 -7 -25 -70 -45 -107 -34 -18 5 -73 9 -122 9 -76 0 -87 -2 -82 -16 3 -9 6 -73 6 -144 l0 -128 251 -4 c274 -4 275 -4 264 -63 -11 -68 -15 -91 -19 -120 -25 -181 -95 -509 -130 -607 -13 -38 -22 -68 -20 -68 9 0 129 61 143 73 9 8 42 19 73 26 64 14 103 49 92 83 -3 10 -1 24 4 31 14 16 17 305 5 337 -6 14 -13 57 -17 97 -5 57 -3 75 9 87 12 12 15 54 15 250 l0 236 -175 0 c-147 0 -176 -2 -180 -15z"/>
 <path d="M2390 2999 c0 -163 -3 -203 -15 -215 -20 -20 -12 -184 10 -200 9 -7 12 -21 9 -40 -3 -16 -6 -94 -8 -174 -1 -80 -6 -152 -11 -160 -12 -20 -16 -60 -4 -60 5 0 9 4 9 9 0 5 9 11 20 14 20 5 20 14 20 516 0 448 -2 511 -15 511 -13 0 -15 -29 -15 -201z"/>
 <path d="M315 2456 c-13 -19 -14 -29 -5 -45 23 -43 67 -7 54 44 -8 32 -29 32 -49 1z"/>
 <path d="M2393 2103 c-21 -8 -15 -33 7 -33 13 0 20 7 20 20 0 20 -5 23 -27 13z"/>
 <path d="M2230 2006 c-108 -46 -206 -84 -249 -97 -38 -12 -49 -22 -83 -79 -21 -36 -48 -73 -59 -82 l-20 -17 20 -13 c12 -7 21 -16 21 -21 0 -4 23 -36 50 -71 28 -35 50 -70 50 -77 0 -8 9 -39 21 -69 27 -70 24 -224 -5 -280 -10 -19 -19 -42 -21 -50 -2 -8 -4 -19 -5 -25 -6 -28 2 -35 43 -35 34 0 54 -7 87 -32 24 -18 52 -40 64 -48 12 -8 28 -23 36 -34 21 -28 110 -117 140 -141 14 -11 42 -47 63 -80 l37 -59 0 157 c0 101 -4 157 -10 157 -11 0 -14 -7 -24 -52 -7 -29 -36 -39 -36 -13 0 9 -7 27 -16 40 -14 22 -21 24 -60 18 -51 -7 -55 1 -17 31 36 28 121 39 146 18 16 -14 17 9 17 466 0 379 -3 482 -12 482 -19 0 -20 -24 -22 -378 0 -177 -5 -322 -9 -322 -5 0 -8 -10 -7 -22 4 -39 0 -49 -12 -42 -11 7 -9 -13 7 -79 6 -21 1 -32 -20 -52 -37 -33 -51 -32 -64 6 -15 43 -14 59 3 53 10 -4 12 4 9 35 -2 23 0 41 5 41 10 0 10 -3 11 354 1 180 5 295 12 308 8 15 6 26 -7 46 -10 15 -20 39 -23 54 l-6 27 -55 -23z"/>
 <path d="M2145 779 c-33 -14 -69 -37 -81 -50 -32 -36 -95 -136 -99 -156 -2 -10 -4 -18 -5 -18 -1 0 -4 -13 -6 -30 -2 -16 -7 -47 -10 -67 -13 -80 41 -128 144 -128 73 0 132 25 167 70 17 22 35 39 41 40 28 1 94 113 94 160 0 36 -35 110 -52 110 -6 0 -9 3 -5 6 5 6 -70 83 -83 85 -35 5 -55 1 -105 -22z m49 -205 c20 -20 20 -38 0 -59 -27 -27 -83 -5 -84 32 0 18 29 43 50 43 10 0 26 -7 34 -16z"/>
 <path d="M1084 650 c-12 -4 -24 -17 -28 -27 -6 -17 -5 -17 8 0 7 9 18 17 24 17 6 0 14 5 17 10 7 12 7 12 -21 0z"/>
 <path d="M1140 610 c0 -7 3 -10 7 -7 3 4 3 10 0 14 -4 3 -7 0 -7 -7z"/>
 <path d="M1148 572 c-3 -11 0 -19 7 -19 7 0 12 6 11 13 -3 23 -13 26 -18 6z"/>
 <path d="M998 503 c7 -3 16 -2 19 1 4 3 -2 6 -13 5 -11 0 -14 -3 -6 -6z"/>
 </g>
<g id="layer109" fill="#49a95a" stroke="none">
 <path d="M0 1600 l0 -1600 1210 0 1210 0 0 283 -1 282 -18 -52 c-11 -28 -27 -64 -36 -80 -21 -36 -131 -120 -176 -134 -19 -5 -41 -14 -49 -18 -8 -4 -31 -6 -50 -5 -19 1 -41 3 -48 3 -7 1 -16 9 -19 19 -14 37 -43 42 -72 11 -15 -17 -28 -20 -58 -16 -43 6 -112 23 -119 30 -3 2 -7 28 -11 57 -11 93 -66 114 -98 37 -7 -18 -28 -48 -47 -68 l-33 -36 -69 14 c-90 19 -107 13 -128 -39 -20 -47 -44 -62 -119 -72 -68 -10 -89 11 -92 89 -1 33 2 75 6 92 8 29 6 34 -16 44 -17 8 -23 17 -19 27 5 14 4 14 -9 3 -8 -8 -15 -24 -15 -38 -2 -30 -46 -98 -76 -117 -29 -19 -75 -10 -92 18 -19 31 -4 175 20 193 10 7 16 13 13 14 -28 5 -42 11 -79 35 -24 16 -59 38 -79 49 -20 12 -35 27 -34 35 1 8 -15 27 -35 41 -24 16 -42 39 -50 65 -21 62 -44 114 -52 114 -12 0 -38 72 -49 135 -6 33 -13 76 -17 95 -13 73 -15 217 -4 270 6 30 33 91 59 135 26 44 57 105 70 135 13 30 28 60 33 67 11 14 -12 65 -47 103 -13 14 -25 34 -29 45 -4 15 -21 24 -59 33 -29 6 -59 12 -67 12 -8 0 -46 15 -85 34 -38 18 -100 47 -137 64 l-66 31 -28 -24 c-37 -32 -107 -31 -112 2 -3 20 13 32 56 39 27 5 24 14 -17 60 -22 26 -41 53 -41 61 0 26 31 26 59 -1 l27 -26 13 35 c7 19 18 35 24 35 16 0 46 -50 44 -74 -2 -14 11 -23 50 -36 29 -9 76 -35 106 -58 52 -39 121 -67 139 -56 14 9 9 49 -16 131 -35 116 -43 148 -62 261 -18 100 -19 102 -46 102 -26 0 -28 -2 -28 -45 0 -36 -6 -51 -29 -75 -23 -25 -36 -30 -74 -30 -62 0 -77 17 -77 90 0 38 4 60 12 63 7 2 10 7 7 11 -11 12 -66 -15 -77 -39 -15 -33 -49 -33 -64 0 -10 22 -8 29 12 50 50 53 151 82 198 56 12 -6 46 -11 75 -9 l52 3 -3 35 c-4 63 -8 90 -15 97 -4 3 -7 32 -7 64 0 47 4 60 19 69 12 6 92 10 190 10 l171 0 0 180 0 180 -410 0 -410 0 0 -1600z m1702 -1272 c-9 -9 -15 -9 -24 0 -10 10 -10 15 2 22 20 12 38 -6 22 -22z m-102 -228 c0 -13 -5 -18 -15 -14 -16 7 -19 17 -8 27 12 13 23 7 23 -13z"/>
 <path d="M1230 3175 c0 -18 -10 -32 -32 -46 -28 -17 -43 -19 -98 -14 -36 3 -95 8 -132 12 l-68 6 0 -147 0 -146 320 0 320 0 0 149 c0 82 -3 163 -6 180 l-6 31 -149 0 -149 0 0 -25z"/>
 <path d="M1955 3185 c-3 -8 -7 -22 -10 -30 -7 -25 -70 -45 -107 -34 -18 5 -73 9 -122 9 -76 0 -87 -2 -82 -16 3 -9 6 -73 6 -144 l0 -128 251 -4 c274 -4 275 -4 264 -63 -11 -68 -15 -91 -19 -120 -25 -181 -95 -509 -130 -607 -13 -38 -22 -68 -20 -68 9 0 129 61 143 73 9 8 42 19 73 26 64 14 103 49 92 83 -3 10 -1 24 4 31 14 16 17 305 5 337 -6 14 -13 57 -17 97 -5 57 -3 75 9 87 12 12 15 54 15 250 l0 236 -175 0 c-147 0 -176 -2 -180 -15z"/>
 <path d="M2390 2999 c0 -163 -3 -203 -15 -215 -20 -20 -12 -184 10 -200 9 -7 12 -21 9 -40 -3 -16 -6 -94 -8 -174 -1 -80 -6 -152 -11 -160 -12 -20 -16 -60 -4 -60 5 0 9 4 9 9 0 5 9 11 20 14 20 5 20 14 20 516 0 448 -2 511 -15 511 -13 0 -15 -29 -15 -201z"/>
 <path d="M315 2456 c-13 -19 -14 -29 -5 -45 23 -43 67 -7 54 44 -8 32 -29 32 -49 1z"/>
 <path d="M2393 2103 c-21 -8 -15 -33 7 -33 13 0 20 7 20 20 0 20 -5 23 -27 13z"/>
 <path d="M2230 2006 c-108 -46 -206 -84 -249 -97 -38 -12 -49 -22 -83 -79 -21 -36 -48 -73 -59 -82 l-20 -17 20 -13 c12 -7 21 -16 21 -21 0 -4 23 -36 50 -71 28 -35 50 -70 50 -77 0 -8 9 -39 21 -69 27 -70 24 -224 -5 -280 -10 -19 -19 -42 -21 -50 -2 -8 -4 -19 -5 -25 -6 -28 2 -35 43 -35 34 0 54 -7 87 -32 24 -18 52 -40 64 -48 12 -8 28 -23 36 -34 21 -28 110 -117 140 -141 14 -11 42 -47 63 -80 l37 -59 0 157 c0 101 -4 157 -10 157 -11 0 -14 -7 -24 -52 -7 -29 -36 -39 -36 -13 0 9 -7 27 -16 40 -14 22 -21 24 -60 18 -51 -7 -55 1 -17 31 36 28 121 39 146 18 16 -14 17 9 17 466 0 379 -3 482 -12 482 -19 0 -20 -24 -22 -378 0 -177 -5 -322 -9 -322 -5 0 -8 -10 -7 -22 4 -39 0 -49 -12 -42 -11 7 -9 -13 7 -79 6 -21 1 -32 -20 -52 -37 -33 -51 -32 -64 6 -15 43 -14 59 3 53 10 -4 12 4 9 35 -2 23 0 41 5 41 10 0 10 -3 11 354 1 180 5 295 12 308 8 15 6 26 -7 46 -10 15 -20 39 -23 54 l-6 27 -55 -23z"/>
 <path d="M2145 779 c-33 -14 -69 -37 -81 -50 -32 -36 -95 -136 -99 -156 -2 -10 -4 -18 -5 -18 -1 0 -4 -13 -6 -30 -2 -16 -7 -47 -10 -67 -13 -80 41 -128 144 -128 73 0 132 25 167 70 17 22 35 39 41 40 28 1 94 113 94 160 0 36 -35 110 -52 110 -6 0 -9 3 -5 6 5 6 -70 83 -83 85 -35 5 -55 1 -105 -22z m49 -205 c20 -20 20 -38 0 -59 -27 -27 -83 -5 -84 32 0 18 29 43 50 43 10 0 26 -7 34 -16z"/>
 <path d="M1084 650 c-12 -4 -24 -17 -28 -27 -6 -17 -5 -17 8 0 7 9 18 17 24 17 6 0 14 5 17 10 7 12 7 12 -21 0z"/>
 <path d="M1140 610 c0 -7 3 -10 7 -7 3 4 3 10 0 14 -4 3 -7 0 -7 -7z"/>
 <path d="M1148 572 c-3 -11 0 -19 7 -19 7 0 12 6 11 13 -3 23 -13 26 -18 6z"/>
 <path d="M998 503 c7 -3 16 -2 19 1 4 3 -2 6 -13 5 -11 0 -14 -3 -6 -6z"/>
 </g>
<g id="layer110" fill="#9e6c51" stroke="none">
 <path d="M0 1600 l0 -1600 1210 0 1210 0 0 283 -1 282 -18 -52 c-11 -28 -27 -64 -36 -80 -21 -36 -131 -120 -176 -134 -19 -5 -41 -14 -49 -18 -8 -4 -31 -6 -50 -5 -19 1 -41 3 -48 3 -7 1 -16 9 -19 19 -14 37 -43 42 -72 11 -15 -17 -28 -20 -58 -16 -43 6 -112 23 -119 30 -3 2 -7 28 -11 57 -11 93 -66 114 -98 37 -7 -18 -28 -48 -47 -68 l-33 -36 -69 14 c-90 19 -107 13 -128 -39 -20 -47 -44 -62 -119 -72 -68 -10 -89 11 -92 89 -1 33 2 75 6 92 8 29 6 34 -16 44 -17 8 -23 17 -19 27 5 14 4 14 -9 3 -8 -8 -15 -24 -15 -38 -2 -30 -46 -98 -76 -117 -29 -19 -75 -10 -92 18 -19 31 -4 175 20 193 10 7 16 13 13 14 -28 5 -42 11 -79 35 -24 16 -59 38 -79 49 -20 12 -35 27 -34 35 1 8 -15 27 -35 41 -24 16 -42 39 -50 65 -21 62 -44 114 -52 114 -12 0 -38 72 -49 135 -6 33 -13 76 -17 95 -13 73 -15 217 -4 270 6 30 33 91 59 135 26 44 57 105 70 135 13 30 27 60 32 66 10 13 -8 64 -23 64 -4 0 -8 6 -8 13 0 8 -11 24 -25 37 -14 13 -25 31 -25 39 0 12 -16 20 -53 29 -29 6 -59 12 -67 12 -8 0 -46 15 -85 34 -38 18 -100 47 -137 64 l-66 31 -28 -24 c-37 -32 -107 -31 -112 2 -3 20 13 32 56 39 27 5 24 14 -17 60 -22 26 -41 53 -41 61 0 26 31 26 59 -1 l27 -26 13 35 c7 19 18 35 24 35 16 0 46 -50 44 -74 -2 -14 11 -23 50 -36 29 -9 76 -35 106 -58 52 -39 121 -67 139 -56 14 9 9 49 -16 131 -34 113 -44 152 -51 206 -4 26 -12 47 -17 47 -5 0 -7 4 -4 9 3 5 3 30 0 55 -6 42 -9 46 -35 46 -28 0 -29 -1 -29 -55 0 -49 -3 -57 -25 -67 -14 -6 -25 -15 -25 -20 0 -15 -98 -9 -114 8 -20 19 -23 130 -4 137 7 2 10 7 7 11 -11 12 -66 -15 -77 -39 -15 -33 -49 -33 -64 0 -13 29 2 51 58 86 41 25 126 40 146 25 8 -6 42 -11 74 -10 l59 1 -3 34 c-4 62 -8 89 -15 96 -4 3 -7 34 -7 69 0 56 2 62 23 68 12 3 97 6 190 6 l167 0 0 180 0 180 -410 0 -410 0 0 -1600z m1741 -1210 c9 0 8 -3 -3 -12 -12 -10 -14 -19 -7 -35 4 -13 13 -23 19 -23 5 0 10 -9 10 -20 0 -24 -38 -28 -46 -5 -4 8 -10 15 -14 15 -5 0 -20 4 -35 10 l-26 10 22 22 c11 13 25 34 31 48 9 23 10 24 22 8 7 -10 19 -18 27 -18z m-114 -75 c0 -8 -4 -15 -9 -15 -10 0 -11 14 -1 23 9 10 10 9 10 -8z m-27 -82 c26 -79 59 -91 113 -43 19 17 38 30 41 30 4 0 6 -15 4 -32 -2 -20 -8 -32 -16 -30 -7 1 -27 -14 -44 -34 -43 -49 -108 -75 -133 -54 -17 14 -12 163 6 184 8 8 15 15 16 16 1 0 7 -17 13 -37z m160 27 c0 -5 -5 -10 -11 -10 -5 0 -7 5 -4 10 3 6 8 10 11 10 2 0 4 -4 4 -10z"/>
 <path d="M1230 3175 c0 -18 -10 -32 -32 -46 -28 -17 -43 -19 -98 -14 -36 3 -95 8 -132 12 l-68 6 0 -147 0 -146 320 0 320 0 0 149 c0 82 -3 163 -6 180 l-6 31 -149 0 -149 0 0 -25z"/>
 <path d="M1955 3185 c-3 -8 -7 -22 -10 -30 -7 -25 -70 -45 -107 -34 -18 5 -73 9 -122 9 -76 0 -87 -2 -82 -16 3 -9 6 -73 6 -144 l0 -128 251 -4 c274 -4 275 -4 264 -63 -11 -68 -15 -91 -19 -120 -25 -181 -95 -509 -130 -607 -13 -38 -22 -68 -20 -68 9 0 129 61 143 73 9 8 42 19 73 26 64 14 103 49 92 83 -3 10 -1 24 4 31 14 16 17 305 5 337 -6 14 -13 57 -17 97 -5 57 -3 75 9 87 12 12 15 54 15 250 l0 236 -175 0 c-147 0 -176 -2 -180 -15z"/>
 <path d="M2390 2999 c0 -163 -3 -203 -15 -215 -20 -20 -12 -184 10 -200 9 -7 12 -21 9 -40 -3 -16 -6 -94 -8 -174 -1 -80 -6 -152 -11 -160 -12 -20 -16 -60 -4 -60 5 0 9 4 9 9 0 5 9 11 20 14 20 5 20 14 20 516 0 448 -2 511 -15 511 -13 0 -15 -29 -15 -201z"/>
 <path d="M315 2456 c-13 -19 -14 -29 -5 -45 23 -43 67 -7 54 44 -8 32 -29 32 -49 1z"/>
 <path d="M2393 2103 c-21 -8 -15 -33 7 -33 13 0 20 7 20 20 0 20 -5 23 -27 13z"/>
 <path d="M2230 2006 c-108 -46 -206 -84 -249 -97 -38 -12 -49 -22 -83 -79 -21 -36 -48 -73 -59 -82 l-20 -17 20 -13 c12 -7 21 -16 21 -21 0 -4 23 -36 50 -71 28 -35 50 -70 50 -77 0 -8 9 -39 21 -69 27 -70 24 -224 -5 -280 -10 -19 -19 -42 -21 -50 -2 -8 -4 -19 -5 -25 -6 -28 2 -35 43 -35 34 0 54 -7 87 -32 24 -18 52 -40 64 -48 12 -8 28 -23 36 -34 21 -28 110 -117 140 -141 14 -11 42 -47 63 -80 l37 -59 0 157 c0 101 -4 157 -10 157 -11 0 -14 -7 -24 -52 -7 -29 -36 -39 -36 -13 0 9 -7 27 -16 40 -14 22 -21 24 -60 18 -51 -7 -55 1 -17 31 36 28 121 39 146 18 16 -14 17 9 17 466 0 379 -3 482 -12 482 -19 0 -20 -24 -22 -378 0 -177 -5 -322 -9 -322 -5 0 -8 -10 -7 -22 4 -39 0 -49 -12 -42 -11 7 -9 -13 7 -79 6 -21 1 -32 -20 -52 -37 -33 -51 -32 -64 6 -15 43 -14 59 3 53 10 -4 12 4 9 35 -2 23 0 41 5 41 10 0 10 -3 11 354 1 180 5 295 12 308 8 15 6 26 -7 46 -10 15 -20 39 -23 54 l-6 27 -55 -23z"/>
 <path d="M2145 779 c-33 -14 -69 -37 -81 -50 -32 -36 -95 -136 -99 -156 -2 -10 -4 -18 -5 -18 -1 0 -4 -13 -6 -30 -2 -16 -7 -47 -10 -67 -13 -80 41 -128 144 -128 73 0 132 25 167 70 17 22 35 39 41 40 28 1 94 113 94 160 0 36 -35 110 -52 110 -6 0 -9 3 -5 6 5 6 -70 83 -83 85 -35 5 -55 1 -105 -22z m49 -205 c20 -20 20 -38 0 -59 -27 -27 -83 -5 -84 32 0 18 29 43 50 43 10 0 26 -7 34 -16z"/>
 <path d="M1084 650 c-12 -4 -24 -17 -28 -27 -6 -17 -5 -17 8 0 7 9 18 17 24 17 6 0 14 5 17 10 7 12 7 12 -21 0z"/>
 <path d="M1140 610 c0 -7 3 -10 7 -7 3 4 3 10 0 14 -4 3 -7 0 -7 -7z"/>
 <path d="M1148 572 c-3 -11 0 -19 7 -19 7 0 12 6 11 13 -3 23 -13 26 -18 6z"/>
 <path d="M998 503 c7 -3 16 -2 19 1 4 3 -2 6 -13 5 -11 0 -14 -3 -6 -6z"/>
 </g>
<g id="layer111" fill="#599e67" stroke="none">
 <path d="M0 1600 l0 -1600 1210 0 1210 0 0 283 -1 282 -18 -52 c-11 -28 -27 -64 -36 -80 -21 -36 -131 -119 -176 -134 -19 -6 -41 -13 -49 -16 -8 -3 -37 -7 -63 -8 -42 -1 -50 2 -57 20 -12 33 -46 38 -64 10 -13 -20 -19 -21 -58 -14 -55 10 -118 26 -124 32 -3 2 -7 28 -11 57 -11 93 -66 114 -98 37 -7 -18 -28 -48 -47 -68 l-33 -36 -69 14 c-90 19 -107 13 -128 -39 -20 -47 -43 -62 -117 -72 -63 -9 -86 9 -95 73 -4 30 -2 69 5 93 9 36 9 44 -7 55 -22 16 -30 11 -58 -45 -31 -61 -56 -83 -103 -89 -59 -8 -73 12 -73 98 0 38 6 85 14 104 l15 34 -52 33 c-28 18 -67 42 -86 53 -20 12 -35 27 -34 35 1 8 -15 27 -35 41 -24 16 -42 39 -50 65 -21 62 -44 114 -52 114 -12 0 -38 72 -49 135 -6 33 -13 76 -17 95 -13 73 -15 217 -4 270 6 30 33 91 59 135 26 44 57 105 70 135 13 30 27 60 32 66 10 13 -8 64 -23 64 -4 0 -8 6 -8 13 0 8 -11 24 -25 37 -14 13 -25 31 -25 39 0 12 -16 20 -53 29 -29 6 -59 12 -67 12 -8 0 -46 15 -85 34 -38 18 -100 47 -137 64 l-66 31 -28 -24 c-37 -32 -107 -31 -112 2 -3 20 13 32 56 39 27 5 24 14 -17 60 -22 26 -41 53 -41 61 0 26 31 26 59 -1 l27 -26 13 35 c7 19 18 35 24 35 16 0 46 -50 44 -74 -2 -14 11 -23 50 -36 29 -9 76 -35 106 -58 52 -39 121 -67 139 -56 14 9 9 49 -16 131 -34 113 -44 152 -51 206 -4 26 -12 47 -17 47 -5 0 -7 4 -4 9 3 5 3 30 0 55 -6 42 -9 46 -35 46 -28 0 -29 -1 -29 -55 0 -49 -3 -57 -25 -67 -14 -6 -25 -15 -25 -20 0 -15 -98 -9 -114 8 -20 19 -23 130 -4 137 7 2 10 7 7 11 -11 12 -66 -15 -77 -39 -15 -33 -49 -33 -64 0 -13 29 2 51 58 86 41 25 126 40 146 25 8 -6 42 -11 74 -10 l59 1 -3 34 c-4 62 -8 89 -15 96 -4 3 -7 34 -7 69 0 56 2 62 23 68 12 3 97 6 190 6 l167 0 0 180 0 180 -410 0 -410 0 0 -1600z m1741 -1210 c9 0 8 -3 -3 -12 -12 -10 -14 -19 -7 -35 4 -13 13 -23 19 -23 5 0 10 -9 10 -20 0 -24 -38 -28 -46 -5 -4 8 -10 15 -14 15 -5 0 -20 4 -35 10 l-26 10 22 22 c11 13 25 34 31 48 9 23 10 24 22 8 7 -10 19 -18 27 -18z m-114 -75 c0 -8 -4 -15 -9 -15 -10 0 -11 14 -1 23 9 10 10 9 10 -8z m-27 -82 c26 -79 59 -91 113 -43 19 17 38 30 41 30 4 0 6 -15 4 -32 -2 -20 -8 -32 -16 -30 -7 1 -27 -14 -44 -34 -43 -49 -108 -75 -133 -54 -17 14 -12 163 6 184 8 8 15 15 16 16 1 0 7 -17 13 -37z m160 27 c0 -5 -5 -10 -11 -10 -5 0 -7 5 -4 10 3 6 8 10 11 10 2 0 4 -4 4 -10z m187 -7 c-4 -3 -7 0 -7 7 0 7 3 10 7 7 3 -4 3 -10 0 -14z"/>
 <path d="M1230 3175 c0 -18 -10 -32 -32 -46 -28 -17 -43 -19 -98 -14 -36 3 -95 8 -132 12 l-68 6 0 -147 0 -146 320 0 320 0 0 149 c0 82 -3 163 -6 180 l-6 31 -149 0 -149 0 0 -25z"/>
 <path d="M1955 3185 c-3 -8 -7 -22 -10 -30 -7 -25 -70 -45 -107 -34 -18 5 -73 9 -122 9 -76 0 -87 -2 -82 -16 3 -9 6 -73 6 -144 l0 -128 251 -4 c274 -4 275 -4 264 -63 -11 -68 -15 -91 -19 -120 -25 -181 -95 -509 -130 -607 -13 -38 -22 -68 -20 -68 9 0 129 61 143 73 9 8 42 19 73 26 64 14 103 49 92 83 -3 10 -1 24 4 31 14 16 17 305 5 337 -6 14 -13 57 -17 97 -5 57 -3 75 9 87 12 12 15 54 15 250 l0 236 -175 0 c-147 0 -176 -2 -180 -15z"/>
 <path d="M2390 2999 c0 -163 -3 -203 -15 -215 -20 -20 -12 -184 10 -200 9 -7 12 -21 9 -40 -3 -16 -6 -94 -8 -174 -1 -80 -6 -152 -11 -160 -12 -20 -16 -60 -4 -60 5 0 9 4 9 9 0 5 9 11 20 14 20 5 20 14 20 516 0 448 -2 511 -15 511 -13 0 -15 -29 -15 -201z"/>
 <path d="M315 2456 c-13 -19 -14 -29 -5 -45 23 -43 67 -7 54 44 -8 32 -29 32 -49 1z"/>
 <path d="M2393 2103 c-21 -8 -15 -33 7 -33 13 0 20 7 20 20 0 20 -5 23 -27 13z"/>
 <path d="M2230 2006 c-108 -46 -206 -84 -249 -97 -38 -12 -49 -22 -83 -79 -21 -36 -48 -73 -59 -82 l-20 -17 20 -13 c12 -7 21 -16 21 -21 0 -4 23 -36 50 -71 28 -35 50 -70 50 -77 0 -8 9 -39 21 -69 27 -70 24 -224 -5 -280 -10 -19 -19 -42 -21 -50 -2 -8 -4 -19 -5 -25 -6 -28 2 -35 43 -35 34 0 54 -7 87 -32 24 -18 52 -40 64 -48 12 -8 28 -23 36 -34 21 -28 110 -117 140 -141 14 -11 42 -47 63 -80 l37 -59 0 157 c0 101 -4 157 -10 157 -11 0 -14 -7 -24 -52 -7 -29 -36 -39 -36 -13 0 9 -7 27 -16 40 -14 22 -21 24 -60 18 -51 -7 -55 1 -17 31 36 28 121 39 146 18 16 -14 17 9 17 466 0 379 -3 482 -12 482 -19 0 -20 -24 -22 -378 0 -177 -5 -322 -9 -322 -5 0 -8 -10 -7 -22 4 -39 0 -49 -12 -42 -11 7 -9 -13 7 -79 6 -21 1 -32 -20 -52 -37 -33 -51 -32 -64 6 -15 43 -14 59 3 53 10 -4 12 4 9 35 -2 23 0 41 5 41 10 0 10 -3 11 354 1 180 5 295 12 308 8 15 6 26 -7 46 -10 15 -20 39 -23 54 l-6 27 -55 -23z"/>
 <path d="M2145 779 c-33 -14 -69 -37 -81 -50 -32 -36 -95 -136 -99 -156 -2 -10 -4 -18 -5 -18 -1 0 -4 -13 -6 -30 -2 -16 -7 -47 -10 -67 -13 -80 41 -128 144 -128 73 0 132 25 167 70 17 22 35 39 41 40 28 1 94 113 94 160 0 36 -35 110 -52 110 -6 0 -9 3 -5 6 5 6 -70 83 -83 85 -35 5 -55 1 -105 -22z m49 -205 c20 -20 20 -38 0 -59 -27 -27 -83 -5 -84 32 0 18 29 43 50 43 10 0 26 -7 34 -16z"/>
 </g>
<g id="layer112" fill="#4fe861" stroke="none">
 <path d="M0 1600 l0 -1600 1210 0 1210 0 0 283 -1 282 -18 -52 c-11 -28 -27 -64 -36 -80 -21 -36 -131 -119 -176 -134 -19 -6 -41 -13 -49 -16 -8 -3 -37 -7 -63 -8 -42 -1 -50 2 -57 20 -12 33 -46 38 -64 10 -13 -20 -19 -21 -63 -13 -101 19 -98 20 -98 -44 0 -51 -4 -62 -32 -93 -18 -20 -33 -40 -33 -45 0 -6 -5 -10 -11 -10 -6 0 -20 -11 -30 -24 -16 -21 -29 -25 -87 -28 l-67 -3 3 73 c2 44 -1 78 -8 87 -7 9 -8 15 0 20 5 3 10 14 10 24 0 10 10 25 23 34 14 10 19 18 12 25 -15 14 -129 35 -151 28 -11 -3 -27 -25 -36 -48 -20 -47 -43 -62 -117 -72 -63 -9 -86 9 -95 73 -4 30 -2 69 5 93 9 36 9 44 -7 55 -22 16 -30 11 -58 -45 -31 -61 -56 -83 -103 -89 -59 -8 -73 12 -73 98 0 38 6 85 14 104 l15 34 -52 33 c-28 18 -67 42 -86 53 -20 12 -35 27 -34 35 1 8 -15 27 -35 41 -24 16 -42 39 -50 65 -21 62 -44 114 -52 114 -12 0 -38 72 -49 135 -6 33 -13 76 -17 95 -13 73 -15 217 -4 270 6 30 33 91 59 135 26 44 57 105 70 135 13 30 28 60 33 67 11 14 -8 56 -23 48 -5 -4 -9 -1 -9 6 0 21 -63 109 -79 109 -9 0 -29 7 -45 15 -15 8 -35 15 -44 15 -9 0 -48 15 -87 34 -38 18 -100 47 -137 64 l-66 31 -28 -24 c-37 -32 -107 -31 -112 2 -3 20 13 32 56 39 27 5 24 14 -17 60 -22 26 -41 53 -41 61 0 26 31 26 59 -1 l27 -26 13 35 c7 19 18 35 24 35 16 0 46 -50 44 -74 -2 -14 11 -23 49 -35 28 -10 74 -34 101 -54 28 -20 58 -37 66 -37 9 0 19 -5 22 -10 4 -6 11 -7 17 -4 6 4 14 1 18 -6 10 -16 30 -4 30 17 0 8 -14 58 -31 110 -17 52 -29 97 -25 100 3 3 1 12 -4 18 -5 7 -13 36 -16 66 -3 30 -10 59 -16 66 -5 6 -8 20 -7 30 1 10 -1 26 -6 36 -4 9 -5 24 -1 32 4 11 -1 15 -19 15 -14 0 -25 -6 -26 -12 -3 -73 -8 -90 -33 -113 -21 -20 -38 -25 -76 -25 -66 0 -80 16 -80 90 0 38 4 60 12 63 7 2 10 7 7 11 -11 12 -66 -15 -77 -39 -15 -33 -49 -33 -64 0 -10 22 -8 29 12 50 54 57 115 71 251 59 56 -5 67 -4 72 11 4 9 2 26 -4 37 -6 11 -13 62 -16 112 -7 113 -22 106 210 106 l167 0 0 180 0 180 -410 0 -410 0 0 -1600z m1947 -1347 c-4 -3 -7 0 -7 7 0 7 3 10 7 7 3 -4 3 -10 0 -14z"/>
 <path d="M1230 3175 c0 -18 -10 -32 -32 -46 -28 -17 -43 -19 -98 -14 -36 3 -95 8 -132 12 l-68 6 0 -147 0 -146 320 0 320 0 0 149 c0 82 -3 163 -6 180 l-6 31 -149 0 -149 0 0 -25z"/>
 <path d="M1955 3185 c-3 -8 -7 -22 -10 -30 -7 -25 -70 -45 -107 -34 -18 5 -73 9 -122 9 -76 0 -87 -2 -82 -16 3 -9 6 -73 6 -144 l0 -128 251 -4 c274 -4 275 -4 264 -63 -11 -68 -15 -91 -19 -120 -25 -181 -95 -509 -130 -607 -13 -38 -22 -68 -20 -68 9 0 129 61 143 73 9 8 42 19 73 26 64 14 103 49 92 83 -3 10 -1 24 4 31 14 16 17 305 5 337 -6 14 -13 57 -17 97 -5 57 -3 75 9 87 12 12 15 54 15 250 l0 236 -175 0 c-147 0 -176 -2 -180 -15z"/>
 <path d="M2390 2999 c0 -163 -3 -203 -15 -215 -20 -20 -12 -184 10 -200 9 -7 12 -21 9 -40 -3 -16 -6 -94 -8 -174 -1 -80 -6 -152 -11 -160 -12 -20 -16 -60 -4 -60 5 0 9 4 9 9 0 5 9 11 20 14 20 5 20 14 20 516 0 448 -2 511 -15 511 -13 0 -15 -29 -15 -201z"/>
 <path d="M315 2456 c-13 -19 -14 -29 -5 -45 23 -43 67 -7 54 44 -8 32 -29 32 -49 1z"/>
 <path d="M2393 2103 c-21 -8 -15 -33 7 -33 13 0 20 7 20 20 0 20 -5 23 -27 13z"/>
 <path d="M2230 2006 c-108 -46 -206 -84 -249 -97 -38 -12 -49 -22 -83 -79 -21 -36 -48 -73 -59 -82 l-20 -17 20 -13 c12 -7 21 -16 21 -21 0 -4 23 -36 50 -71 28 -35 50 -70 50 -77 0 -8 9 -39 21 -69 27 -70 24 -224 -5 -280 -10 -19 -19 -42 -21 -50 -2 -8 -4 -19 -5 -25 -6 -28 2 -35 43 -35 34 0 54 -7 87 -32 24 -18 52 -40 64 -48 12 -8 28 -23 36 -34 21 -28 110 -117 140 -141 14 -11 42 -47 63 -80 l37 -59 0 157 c0 101 -4 157 -10 157 -11 0 -14 -7 -24 -52 -7 -29 -36 -39 -36 -13 0 9 -7 27 -16 40 -14 22 -21 24 -60 18 -51 -7 -55 1 -17 31 36 28 121 39 146 18 16 -14 17 9 17 466 0 379 -3 482 -12 482 -19 0 -20 -24 -22 -378 0 -177 -5 -322 -9 -322 -5 0 -8 -10 -7 -22 4 -39 0 -49 -12 -42 -11 7 -9 -13 7 -79 6 -21 1 -32 -20 -52 -37 -33 -51 -32 -64 6 -15 43 -14 59 3 53 10 -4 12 4 9 35 -2 23 0 41 5 41 10 0 10 -3 11 354 1 180 5 295 12 308 8 15 6 26 -7 46 -10 15 -20 39 -23 54 l-6 27 -55 -23z"/>
 <path d="M2145 779 c-33 -14 -69 -37 -81 -50 -32 -36 -95 -136 -99 -156 -2 -10 -4 -18 -5 -18 -1 0 -4 -13 -6 -30 -2 -16 -7 -47 -10 -67 -13 -80 41 -128 144 -128 73 0 132 25 167 70 17 22 35 39 41 40 28 1 94 113 94 160 0 36 -35 110 -52 110 -6 0 -9 3 -5 6 5 6 -70 83 -83 85 -35 5 -55 1 -105 -22z m49 -205 c20 -20 20 -38 0 -59 -27 -27 -83 -5 -84 32 0 18 29 43 50 43 10 0 26 -7 34 -16z"/>
 <path d="M1733 433 c4 -3 10 -3 14 0 3 4 0 7 -7 7 -7 0 -10 -3 -7 -7z"/>
 <path d="M1626 278 c-22 -31 -20 -51 9 -78 21 -20 28 -22 50 -12 14 7 30 23 37 36 26 58 -60 106 -96 54z"/>
 </g>
<g id="layer113" fill="#5add69" stroke="none">
 <path d="M0 1600 l0 -1600 1210 0 1210 0 0 283 -1 282 -18 -52 c-11 -28 -27 -64 -36 -80 -21 -36 -131 -119 -176 -134 -19 -6 -41 -13 -49 -16 -8 -3 -37 -7 -63 -8 -42 -1 -50 2 -57 20 -12 33 -46 38 -64 10 -13 -20 -19 -21 -63 -13 -101 19 -98 20 -98 -44 0 -51 -4 -62 -32 -93 -18 -20 -33 -40 -33 -45 0 -6 -5 -10 -11 -10 -6 0 -20 -11 -30 -24 -16 -21 -29 -25 -87 -28 l-67 -3 3 73 c2 44 -1 78 -8 87 -7 9 -8 15 0 20 5 3 10 14 10 24 0 10 10 25 23 34 14 10 19 18 12 25 -15 14 -129 35 -151 28 -11 -3 -27 -25 -36 -48 -20 -47 -43 -62 -117 -72 -63 -9 -86 9 -95 73 -4 30 -2 69 5 93 9 36 9 44 -7 55 -22 16 -30 11 -58 -45 -31 -61 -56 -83 -103 -89 -59 -8 -73 12 -73 98 0 38 6 85 14 104 l15 34 -52 33 c-28 18 -67 42 -86 53 -20 12 -35 27 -34 35 1 8 -15 27 -35 41 -24 16 -42 39 -50 65 -21 62 -44 114 -52 114 -12 0 -38 72 -49 135 -6 33 -13 76 -17 95 -13 73 -15 217 -4 270 6 30 33 91 59 135 26 44 57 105 70 135 13 30 28 60 33 67 11 14 -8 56 -23 48 -5 -4 -9 -1 -9 6 0 21 -63 109 -79 109 -9 0 -29 7 -45 15 -15 8 -35 15 -44 15 -9 0 -48 15 -87 34 -38 18 -100 47 -137 64 l-66 31 -28 -24 c-37 -32 -107 -31 -112 2 -3 20 13 32 56 39 27 5 24 14 -17 60 -22 26 -41 53 -41 61 0 26 31 26 59 -1 l27 -26 13 35 c7 19 18 35 24 35 16 0 46 -50 44 -74 -2 -14 11 -23 49 -35 28 -10 74 -34 101 -54 28 -20 58 -37 66 -37 9 0 19 -5 22 -10 4 -6 11 -7 17 -4 6 4 14 1 18 -6 10 -16 30 -4 30 17 0 8 -14 58 -31 110 -17 52 -29 97 -25 100 3 3 1 12 -4 18 -5 7 -13 36 -16 66 -3 30 -10 59 -16 66 -5 6 -8 20 -7 30 1 10 -1 26 -6 36 -4 9 -5 24 -1 32 4 11 -1 15 -19 15 -14 0 -25 -6 -26 -12 -3 -73 -8 -90 -33 -113 -21 -20 -38 -25 -76 -25 -66 0 -80 16 -80 90 0 38 4 60 12 63 7 2 10 7 7 11 -11 12 -66 -15 -77 -39 -15 -33 -49 -33 -64 0 -10 22 -8 29 12 50 54 57 115 71 251 59 56 -5 67 -4 72 11 4 9 2 26 -4 37 -6 11 -13 62 -16 112 -7 113 -22 106 210 106 l167 0 0 180 0 180 -410 0 -410 0 0 -1600z m412 1183 c1 -21 1 -47 -1 -58 -5 -43 -1 -78 10 -91 9 -11 8 -14 -5 -14 -10 0 -15 -4 -12 -8 9 -16 -29 -9 -41 7 -17 23 -25 108 -13 131 9 16 8 22 -5 26 -8 3 -15 15 -15 25 0 15 7 19 40 19 39 0 40 -1 42 -37z m56 -419 c-4 -57 -2 -74 7 -70 13 5 25 -41 25 -95 0 -15 11 -52 25 -83 28 -64 29 -66 15 -66 -30 0 -96 120 -105 189 -3 19 -9 39 -15 45 -16 16 -12 44 15 86 14 22 25 46 25 55 0 8 3 15 6 15 4 0 4 -34 2 -76z m190 -516 c5 -7 13 -28 17 -45 6 -30 4 -33 -17 -33 -17 0 -28 11 -40 39 -10 20 -18 41 -18 44 0 12 47 7 58 -5z m1289 -1595 c-4 -3 -7 0 -7 7 0 7 3 10 7 7 3 -4 3 -10 0 -14z"/>
 <path d="M1230 3175 c0 -18 -10 -32 -32 -46 -28 -17 -43 -19 -98 -14 -36 3 -95 8 -132 12 l-68 6 0 -147 0 -146 320 0 320 0 0 149 c0 82 -3 163 -6 180 l-6 31 -149 0 -149 0 0 -25z"/>
 <path d="M1955 3185 c-3 -8 -7 -22 -10 -30 -7 -25 -70 -45 -107 -34 -18 5 -73 9 -122 9 -76 0 -87 -2 -82 -16 3 -9 6 -73 6 -144 l0 -128 251 -4 c274 -4 275 -4 264 -63 -11 -68 -15 -91 -19 -120 -25 -181 -95 -509 -130 -607 -13 -38 -22 -68 -20 -68 9 0 129 61 143 73 9 8 42 19 73 26 64 14 103 49 92 83 -3 10 -1 24 4 31 14 16 17 305 5 337 -6 14 -13 57 -17 97 -5 57 -3 75 9 87 12 12 15 54 15 250 l0 236 -175 0 c-147 0 -176 -2 -180 -15z"/>
 <path d="M2390 2999 c0 -163 -3 -203 -15 -215 -20 -20 -12 -184 10 -200 9 -7 12 -21 9 -40 -3 -16 -6 -94 -8 -174 -1 -80 -6 -152 -11 -160 -12 -20 -16 -60 -4 -60 5 0 9 4 9 9 0 5 9 11 20 14 20 5 20 14 20 516 0 448 -2 511 -15 511 -13 0 -15 -29 -15 -201z"/>
 <path d="M315 2456 c-13 -19 -14 -29 -5 -45 23 -43 67 -7 54 44 -8 32 -29 32 -49 1z"/>
 <path d="M2393 2103 c-21 -8 -15 -33 7 -33 13 0 20 7 20 20 0 20 -5 23 -27 13z"/>
 <path d="M2230 2006 c-108 -46 -206 -84 -249 -97 -38 -12 -49 -22 -83 -79 -21 -36 -48 -73 -59 -82 l-20 -17 20 -13 c12 -7 21 -16 21 -21 0 -4 23 -36 50 -71 28 -35 50 -70 50 -77 0 -8 9 -39 21 -69 27 -70 24 -224 -5 -280 -10 -19 -19 -42 -21 -50 -2 -8 -4 -19 -5 -25 -6 -28 2 -35 43 -35 34 0 54 -7 87 -32 24 -18 52 -40 64 -48 12 -8 28 -23 36 -34 21 -28 110 -117 140 -141 14 -11 42 -47 63 -80 l37 -59 0 157 c0 101 -4 157 -10 157 -11 0 -14 -7 -24 -52 -7 -29 -36 -39 -36 -13 0 9 -7 27 -16 40 -14 22 -21 24 -60 18 -51 -7 -55 1 -17 31 36 28 121 39 146 18 16 -14 17 9 17 466 0 379 -3 482 -12 482 -19 0 -20 -24 -22 -378 0 -177 -5 -322 -9 -322 -5 0 -8 -10 -7 -22 4 -39 0 -49 -12 -42 -11 7 -9 -13 7 -79 6 -21 1 -32 -20 -52 -37 -33 -51 -32 -64 6 -15 43 -14 59 3 53 10 -4 12 4 9 35 -2 23 0 41 5 41 10 0 10 -3 11 354 1 180 5 295 12 308 8 15 6 26 -7 46 -10 15 -20 39 -23 54 l-6 27 -55 -23z"/>
 <path d="M2145 779 c-33 -14 -69 -37 -81 -50 -32 -36 -95 -136 -99 -156 -2 -10 -4 -18 -5 -18 -1 0 -4 -13 -6 -30 -2 -16 -7 -47 -10 -67 -13 -80 41 -128 144 -128 73 0 132 25 167 70 17 22 35 39 41 40 28 1 94 113 94 160 0 36 -35 110 -52 110 -6 0 -9 3 -5 6 5 6 -70 83 -83 85 -35 5 -55 1 -105 -22z m49 -205 c20 -20 20 -38 0 -59 -27 -27 -83 -5 -84 32 0 18 29 43 50 43 10 0 26 -7 34 -16z"/>
 <path d="M1733 433 c4 -3 10 -3 14 0 3 4 0 7 -7 7 -7 0 -10 -3 -7 -7z"/>
 <path d="M1626 278 c-22 -31 -20 -51 9 -78 21 -20 28 -22 50 -12 14 7 30 23 37 36 26 58 -60 106 -96 54z"/>
 </g>
<g id="layer114" fill="#e26a57" stroke="none">
 <path d="M0 1600 l0 -1600 1210 0 1210 0 0 283 -1 282 -18 -52 c-11 -28 -27 -64 -36 -80 -21 -36 -131 -119 -176 -134 -19 -6 -41 -13 -49 -16 -8 -3 -37 -7 -63 -8 -42 -1 -50 2 -57 20 -12 33 -46 38 -64 10 -13 -20 -19 -21 -63 -13 -101 19 -98 20 -98 -44 0 -51 -4 -62 -32 -93 -18 -20 -33 -40 -33 -45 0 -6 -5 -10 -11 -10 -6 0 -20 -11 -30 -24 -16 -21 -29 -25 -87 -28 l-67 -3 3 73 c2 44 -1 78 -8 87 -7 9 -8 15 0 20 5 3 10 14 10 24 0 10 10 25 23 34 14 10 19 18 12 25 -15 14 -129 35 -151 28 -11 -3 -27 -25 -36 -48 -20 -47 -43 -62 -117 -72 -63 -9 -86 9 -95 73 -4 30 -2 69 5 93 9 36 9 44 -7 55 -22 16 -30 11 -58 -45 -31 -61 -56 -83 -103 -89 -59 -8 -73 12 -73 98 0 38 6 85 14 104 l15 34 -52 33 c-28 18 -67 42 -86 53 -20 12 -35 27 -34 35 1 8 -15 27 -35 41 -24 16 -42 39 -50 65 -21 62 -44 114 -52 114 -12 0 -38 72 -49 135 -6 33 -13 76 -17 95 -13 73 -15 217 -4 270 6 30 33 91 59 135 26 44 57 105 70 135 13 30 28 60 33 67 11 14 -8 56 -23 48 -5 -4 -9 0 -9 9 0 8 -10 27 -23 43 -13 15 -26 36 -30 46 -3 9 -14 17 -24 17 -10 0 -31 7 -47 15 -15 8 -35 15 -44 15 -9 0 -48 15 -87 34 -38 18 -100 47 -137 64 l-66 31 -28 -24 c-37 -32 -107 -31 -112 2 -3 20 13 32 56 39 27 5 24 14 -17 60 -22 26 -41 53 -41 61 0 26 31 26 59 -1 l27 -26 13 35 c7 19 18 35 24 35 16 0 46 -50 44 -74 -2 -14 11 -23 49 -35 28 -10 74 -34 101 -54 28 -20 58 -37 66 -37 9 0 19 -5 22 -10 4 -6 11 -7 17 -4 6 4 14 1 18 -6 10 -16 30 -4 30 17 0 8 -14 58 -31 110 -17 52 -29 97 -25 100 3 3 1 12 -4 18 -5 7 -13 36 -16 66 -3 30 -10 59 -16 66 -5 6 -8 20 -7 30 1 10 -1 26 -6 36 -4 9 -5 24 -1 32 4 11 -1 15 -19 15 -14 0 -25 -6 -26 -12 0 -7 -2 -31 -3 -52 -3 -35 -2 -37 10 -21 8 10 14 28 14 39 0 17 2 18 10 6 5 -8 10 -27 10 -42 0 -15 4 -47 10 -70 5 -24 15 -77 21 -118 7 -41 16 -79 21 -85 4 -5 8 -19 8 -31 0 -13 5 -26 10 -29 6 -3 10 -15 10 -26 0 -14 -7 -19 -26 -19 -14 0 -23 4 -19 10 3 6 0 10 -7 10 -7 0 -20 17 -30 38 -37 84 -59 144 -55 148 3 3 -2 26 -9 51 -13 42 -12 48 3 65 23 26 9 34 -16 9 -26 -26 -111 -30 -135 -5 -20 19 -23 130 -4 137 7 2 10 7 7 11 -11 12 -66 -15 -77 -39 -15 -33 -49 -33 -64 0 -10 22 -8 29 12 50 48 51 148 80 208 61 26 -9 26 -8 7 37 -8 19 -17 62 -20 94 -3 32 -8 67 -10 78 -6 31 6 42 51 46 l41 4 14 -132 c7 -73 16 -133 20 -133 14 0 19 32 8 52 -6 11 -13 62 -16 112 -7 113 -22 106 210 106 l167 0 0 180 0 180 -410 0 -410 0 0 -1600z m655 254 c17 -18 48 -74 43 -79 -3 -4 -48 -8 -64 -6 -10 1 -44 63 -44 81 0 7 15 14 42 19 4 0 14 -6 23 -15z m1292 -1601 c-4 -3 -7 0 -7 7 0 7 3 10 7 7 3 -4 3 -10 0 -14z"/>
 <path d="M1230 3175 c0 -18 -10 -32 -32 -46 -28 -17 -43 -19 -98 -14 -36 3 -95 8 -132 12 l-68 6 0 -147 0 -146 320 0 320 0 0 149 c0 82 -3 163 -6 180 l-6 31 -149 0 -149 0 0 -25z"/>
 <path d="M1955 3185 c-3 -8 -7 -22 -10 -30 -7 -25 -70 -45 -107 -34 -18 5 -73 9 -122 9 -76 0 -87 -2 -82 -16 3 -9 6 -73 6 -144 l0 -128 251 -4 c274 -4 275 -4 264 -63 -11 -68 -15 -91 -19 -120 -25 -181 -95 -509 -130 -607 -13 -38 -22 -68 -20 -68 9 0 129 61 143 73 9 8 42 19 73 26 64 14 103 49 92 83 -3 10 -1 24 4 31 14 16 17 305 5 337 -6 14 -13 57 -17 97 -5 57 -3 75 9 87 12 12 15 54 15 250 l0 236 -175 0 c-147 0 -176 -2 -180 -15z"/>
 <path d="M2390 2999 c0 -163 -3 -203 -15 -215 -20 -20 -12 -184 10 -200 9 -7 12 -21 9 -40 -3 -16 -6 -94 -8 -174 -1 -80 -6 -152 -11 -160 -12 -20 -16 -60 -4 -60 5 0 9 4 9 9 0 5 9 11 20 14 20 5 20 14 20 516 0 448 -2 511 -15 511 -13 0 -15 -29 -15 -201z"/>
 <path d="M315 2456 c-13 -19 -14 -29 -5 -45 23 -43 67 -7 54 44 -8 32 -29 32 -49 1z"/>
 <path d="M2393 2103 c-21 -8 -15 -33 7 -33 13 0 20 7 20 20 0 20 -5 23 -27 13z"/>
 <path d="M2230 2006 c-108 -46 -206 -84 -249 -97 -38 -12 -49 -22 -83 -79 -21 -36 -48 -73 -59 -82 l-20 -17 20 -13 c12 -7 21 -16 21 -21 0 -4 23 -36 50 -71 28 -35 50 -70 50 -77 0 -8 9 -39 21 -69 27 -70 24 -224 -5 -280 -10 -19 -19 -42 -21 -50 -2 -8 -4 -19 -5 -25 -6 -28 2 -35 43 -35 34 0 54 -7 87 -32 24 -18 52 -40 64 -48 12 -8 28 -23 36 -34 21 -28 110 -117 140 -141 14 -11 42 -47 63 -80 l37 -59 0 157 c0 101 -4 157 -10 157 -11 0 -14 -7 -24 -52 -7 -29 -36 -39 -36 -13 0 9 -7 27 -16 40 -14 22 -21 24 -60 18 -51 -7 -55 1 -17 31 36 28 121 39 146 18 16 -14 17 9 17 466 0 379 -3 482 -12 482 -19 0 -20 -24 -22 -378 0 -177 -5 -322 -9 -322 -5 0 -8 -10 -7 -22 4 -39 0 -49 -12 -42 -11 7 -9 -13 7 -79 6 -21 1 -32 -20 -52 -37 -33 -51 -32 -64 6 -15 43 -14 59 3 53 10 -4 12 4 9 35 -2 23 0 41 5 41 10 0 10 -3 11 354 1 180 5 295 12 308 8 15 6 26 -7 46 -10 15 -20 39 -23 54 l-6 27 -55 -23z"/>
 <path d="M2145 779 c-33 -14 -69 -37 -81 -50 -32 -36 -95 -136 -99 -156 -2 -10 -4 -18 -5 -18 -1 0 -4 -13 -6 -30 -2 -16 -7 -47 -10 -67 -13 -80 41 -128 144 -128 73 0 132 25 167 70 17 22 35 39 41 40 28 1 94 113 94 160 0 36 -35 110 -52 110 -6 0 -9 3 -5 6 5 6 -70 83 -83 85 -35 5 -55 1 -105 -22z m49 -205 c20 -20 20 -38 0 -59 -27 -27 -83 -5 -84 32 0 18 29 43 50 43 10 0 26 -7 34 -16z"/>
 <path d="M1733 433 c4 -3 10 -3 14 0 3 4 0 7 -7 7 -7 0 -10 -3 -7 -7z"/>
 <path d="M1626 278 c-22 -31 -20 -51 9 -78 21 -20 28 -22 50 -12 14 7 30 23 37 36 26 58 -60 106 -96 54z"/>
 </g>
<g id="layer115" fill="#6dd476" stroke="none">
 <path d="M0 1600 l0 -1600 1210 0 1210 0 0 283 -1 282 -18 -52 c-11 -28 -27 -64 -36 -80 -21 -36 -131 -119 -176 -134 -19 -6 -41 -13 -49 -16 -8 -4 -33 -7 -54 -7 -35 -1 -41 -5 -47 -29 -9 -35 -27 -57 -46 -57 -23 0 -63 47 -63 73 0 22 -6 26 -42 31 -99 15 -93 18 -93 -46 0 -51 -4 -62 -32 -93 -18 -20 -33 -40 -33 -45 0 -6 -5 -10 -11 -10 -6 0 -20 -11 -30 -24 -16 -21 -29 -25 -87 -28 l-67 -3 3 73 c2 44 -1 78 -8 87 -7 9 -8 15 0 20 5 3 10 14 10 24 0 10 10 25 23 34 14 10 19 18 12 25 -15 14 -129 35 -151 28 -11 -3 -27 -25 -36 -48 -20 -47 -43 -62 -117 -72 -63 -9 -86 9 -95 73 -4 30 -2 69 5 93 9 36 9 44 -7 55 -22 16 -30 11 -58 -45 -31 -61 -56 -83 -103 -89 -59 -8 -73 12 -73 98 0 38 6 85 14 104 l15 34 -52 33 c-28 18 -67 42 -86 53 -20 12 -35 27 -34 35 1 8 -15 27 -35 41 -24 16 -42 39 -50 65 -21 62 -44 114 -52 114 -12 0 -38 72 -49 135 -6 33 -13 76 -17 95 -13 73 -15 217 -4 270 6 30 33 91 59 135 26 44 57 105 70 135 13 30 28 60 33 67 11 14 -8 56 -23 48 -5 -4 -9 0 -9 9 0 8 -10 27 -23 43 -13 15 -26 36 -30 46 -3 9 -14 17 -24 17 -10 0 -31 7 -47 15 -15 8 -35 15 -44 15 -9 0 -48 15 -87 34 -38 18 -100 47 -137 64 l-66 31 -28 -24 c-37 -32 -107 -31 -112 2 -3 20 13 32 56 39 27 5 24 14 -17 60 -22 26 -41 53 -41 61 0 26 31 26 59 -1 l27 -26 13 35 c7 19 18 35 24 35 16 0 46 -50 44 -74 -2 -14 11 -23 49 -35 28 -10 74 -34 101 -54 28 -20 58 -37 66 -37 9 0 19 -5 22 -10 4 -6 11 -7 17 -4 6 4 14 1 18 -6 10 -16 30 -4 30 17 0 8 -14 58 -31 110 -17 52 -29 97 -25 100 3 3 1 12 -4 18 -5 7 -13 36 -16 66 -3 30 -10 59 -16 66 -5 6 -8 20 -7 30 1 10 -1 26 -6 36 -4 9 -5 24 -1 32 4 11 -1 15 -19 15 -14 0 -25 -6 -26 -12 0 -7 -2 -31 -3 -52 -3 -35 -2 -37 10 -21 8 10 14 28 14 39 0 17 2 18 10 6 5 -8 10 -27 10 -42 0 -15 4 -47 10 -70 5 -24 15 -77 21 -118 7 -41 16 -79 21 -85 4 -5 8 -19 8 -31 0 -13 5 -26 10 -29 6 -3 10 -15 10 -26 0 -14 -7 -19 -26 -19 -14 0 -23 4 -19 10 3 6 0 10 -7 10 -7 0 -20 17 -30 38 -37 84 -59 144 -55 148 3 3 -2 26 -9 51 -13 42 -12 48 3 65 23 26 9 34 -16 9 -26 -26 -111 -30 -135 -5 -20 19 -23 130 -4 137 7 2 10 7 7 11 -11 12 -66 -15 -77 -39 -15 -33 -49 -33 -64 0 -10 22 -8 29 12 50 48 51 148 80 208 61 26 -9 26 -8 7 37 -8 19 -17 62 -20 94 -3 32 -8 67 -10 78 -6 31 6 42 51 46 l41 4 14 -132 c7 -73 16 -133 20 -133 14 0 19 32 8 52 -6 11 -13 62 -16 112 -7 113 -22 106 210 106 l167 0 0 180 0 180 -410 0 -410 0 0 -1600z m655 254 c17 -18 48 -74 43 -79 -3 -4 -48 -8 -64 -6 -10 1 -44 63 -44 81 0 7 15 14 42 19 4 0 14 -6 23 -15z"/>
 <path d="M1230 3175 c0 -18 -10 -32 -32 -46 -28 -17 -43 -19 -98 -14 -36 3 -95 8 -132 12 l-68 6 0 -147 0 -146 320 0 320 0 0 149 c0 82 -3 163 -6 180 l-6 31 -149 0 -149 0 0 -25z"/>
 <path d="M1955 3185 c-3 -8 -7 -22 -10 -30 -7 -25 -70 -45 -107 -34 -18 5 -73 9 -122 9 -76 0 -87 -2 -82 -16 3 -9 6 -73 6 -144 l0 -128 251 -4 c274 -4 275 -4 264 -63 -11 -68 -15 -91 -19 -120 -25 -181 -95 -509 -130 -607 -13 -38 -22 -68 -20 -68 9 0 129 61 143 73 9 8 42 19 73 26 64 14 103 49 92 83 -3 10 -1 24 4 31 14 16 17 305 5 337 -6 14 -13 57 -17 97 -5 57 -3 75 9 87 12 12 15 54 15 250 l0 236 -175 0 c-147 0 -176 -2 -180 -15z"/>
 <path d="M2390 2999 c0 -163 -3 -203 -15 -215 -20 -20 -12 -184 10 -200 9 -7 12 -21 9 -40 -3 -16 -6 -94 -8 -174 -1 -80 -6 -152 -11 -160 -12 -20 -16 -60 -4 -60 5 0 9 4 9 9 0 5 9 11 20 14 20 5 20 14 20 516 0 448 -2 511 -15 511 -13 0 -15 -29 -15 -201z"/>
 <path d="M315 2456 c-13 -19 -14 -29 -5 -45 23 -43 67 -7 54 44 -8 32 -29 32 -49 1z"/>
 <path d="M2393 2103 c-21 -8 -15 -33 7 -33 13 0 20 7 20 20 0 20 -5 23 -27 13z"/>
 <path d="M2230 2006 c-108 -46 -206 -84 -249 -97 -38 -12 -49 -22 -83 -79 -21 -36 -48 -73 -59 -82 l-20 -17 20 -13 c12 -7 21 -16 21 -21 0 -4 23 -36 50 -71 28 -35 50 -70 50 -77 0 -8 9 -39 21 -69 27 -70 24 -224 -5 -280 -10 -19 -19 -42 -21 -50 -2 -8 -4 -19 -5 -25 -6 -28 2 -35 43 -35 34 0 54 -7 87 -32 24 -18 52 -40 64 -48 12 -8 28 -23 36 -34 21 -28 110 -117 140 -141 14 -11 42 -47 63 -80 l37 -59 0 157 c0 101 -4 157 -10 157 -11 0 -14 -7 -24 -52 -7 -29 -36 -39 -36 -13 0 9 -7 27 -16 40 -14 22 -21 24 -60 18 -51 -7 -55 1 -17 31 36 28 121 39 146 18 16 -14 17 9 17 466 0 379 -3 482 -12 482 -19 0 -20 -24 -22 -378 0 -177 -5 -322 -9 -322 -5 0 -8 -10 -7 -22 4 -39 0 -49 -12 -42 -11 7 -9 -13 7 -79 6 -21 1 -32 -20 -52 -37 -33 -51 -32 -64 6 -15 43 -14 59 3 53 10 -4 12 4 9 35 -2 23 0 41 5 41 10 0 10 -3 11 354 1 180 5 295 12 308 8 15 6 26 -7 46 -10 15 -20 39 -23 54 l-6 27 -55 -23z"/>
 <path d="M2145 779 c-33 -14 -69 -37 -81 -50 -32 -36 -95 -136 -99 -156 -2 -10 -4 -18 -5 -18 -1 0 -4 -13 -6 -30 -2 -16 -7 -47 -10 -67 -13 -80 41 -128 144 -128 73 0 132 25 167 70 17 22 35 39 41 40 28 1 94 113 94 160 0 36 -35 110 -52 110 -6 0 -9 3 -5 6 5 6 -70 83 -83 85 -35 5 -55 1 -105 -22z m49 -205 c20 -20 20 -38 0 -59 -27 -27 -83 -5 -84 32 0 18 29 43 50 43 10 0 26 -7 34 -16z"/>
 <path d="M1733 433 c4 -3 10 -3 14 0 3 4 0 7 -7 7 -7 0 -10 -3 -7 -7z"/>
 <path d="M1626 278 c-22 -31 -20 -51 9 -78 21 -20 28 -22 50 -12 14 7 30 23 37 36 26 58 -60 106 -96 54z"/>
 </g>
<g id="layer116" fill="#77c287" stroke="none">
 <path d="M0 1600 l0 -1600 1210 0 1210 0 0 283 -1 282 -18 -52 c-11 -28 -27 -64 -36 -80 -21 -36 -131 -119 -176 -134 -19 -6 -41 -13 -49 -16 -8 -4 -33 -7 -54 -7 -35 -1 -41 -5 -47 -29 -9 -35 -27 -57 -46 -57 -23 0 -63 47 -63 73 0 22 -6 26 -42 31 -99 15 -93 18 -93 -46 0 -51 -4 -62 -32 -93 -18 -20 -33 -40 -33 -45 0 -6 -5 -10 -11 -10 -6 0 -20 -11 -30 -24 -16 -21 -29 -25 -87 -28 l-67 -3 3 73 c2 44 -1 78 -8 87 -7 9 -8 15 0 20 5 3 10 14 10 24 0 10 10 25 23 34 14 10 19 18 12 25 -15 14 -129 35 -151 28 -11 -3 -27 -25 -36 -48 -20 -47 -43 -62 -117 -72 -63 -9 -86 9 -95 73 -4 30 -2 69 5 93 9 36 9 44 -7 55 -22 16 -30 11 -58 -45 -31 -61 -56 -83 -103 -89 -59 -8 -73 12 -73 98 0 38 6 85 14 104 l15 34 -52 33 c-28 18 -67 42 -86 53 -20 12 -35 27 -34 35 1 8 -15 27 -35 41 -24 16 -42 39 -50 65 -21 62 -44 114 -52 114 -12 0 -38 72 -49 135 -6 33 -13 76 -17 95 -13 73 -15 217 -4 270 6 30 33 91 59 135 26 44 57 105 70 135 13 30 28 60 33 67 6 7 6 19 -1 31 -8 16 -18 19 -47 15 -20 -3 -51 -2 -69 1 -29 6 -35 13 -49 53 -17 49 -11 62 24 63 8 0 2 7 -14 15 -15 8 -35 15 -44 15 -9 0 -48 15 -87 34 -38 18 -100 47 -137 64 l-66 31 -28 -24 c-37 -32 -107 -31 -112 2 -3 20 13 32 56 39 27 5 24 14 -17 60 -22 26 -41 53 -41 61 0 26 31 26 59 -1 l27 -26 13 35 c7 19 18 35 24 35 16 0 46 -50 44 -74 -2 -14 11 -23 49 -35 28 -10 75 -34 103 -55 29 -21 54 -36 57 -34 2 3 -2 11 -10 17 -8 7 -12 19 -9 27 3 7 -2 17 -11 20 -9 3 -13 10 -10 15 3 5 -3 21 -14 37 -22 31 -48 177 -38 213 6 22 6 23 -7 7 -19 -24 -109 -25 -131 -2 -20 19 -23 130 -4 137 7 2 10 7 7 11 -11 12 -66 -15 -77 -39 -15 -33 -49 -33 -64 0 -10 22 -8 29 12 50 34 36 97 64 155 67 56 4 53 -5 35 110 -6 36 -10 84 -8 105 l3 38 70 1 c39 0 150 2 248 2 l177 2 0 180 0 180 -410 0 -410 0 0 -1600z"/>
 <path d="M1230 3175 c0 -18 -10 -32 -32 -46 -28 -17 -43 -19 -98 -14 -36 3 -95 8 -132 12 l-68 6 0 -147 0 -146 320 0 320 0 0 149 c0 82 -3 163 -6 180 l-6 31 -149 0 -149 0 0 -25z"/>
 <path d="M1955 3185 c-3 -8 -7 -22 -10 -30 -7 -25 -70 -45 -107 -34 -18 5 -73 9 -122 9 -76 0 -87 -2 -82 -16 3 -9 6 -73 6 -144 l0 -128 251 -4 c274 -4 275 -4 264 -63 -11 -68 -15 -91 -19 -120 -25 -181 -95 -509 -130 -607 -13 -38 -22 -68 -20 -68 9 0 129 61 143 73 9 8 42 19 73 26 64 14 103 49 92 83 -3 10 -1 24 4 31 14 16 17 305 5 337 -6 14 -13 57 -17 97 -5 57 -3 75 9 87 12 12 15 54 15 250 l0 236 -175 0 c-147 0 -176 -2 -180 -15z"/>
 <path d="M2390 2999 c0 -163 -3 -203 -15 -215 -20 -20 -12 -184 10 -200 9 -7 12 -21 9 -40 -3 -16 -6 -94 -8 -174 -1 -80 -6 -152 -11 -160 -12 -20 -16 -60 -4 -60 5 0 9 4 9 9 0 5 9 11 20 14 20 5 20 14 20 516 0 448 -2 511 -15 511 -13 0 -15 -29 -15 -201z"/>
 <path d="M432 2770 c0 -14 2 -19 5 -12 2 6 2 18 0 25 -3 6 -5 1 -5 -13z"/>
 <path d="M442 2670 c0 -14 2 -19 5 -12 2 6 2 18 0 25 -3 6 -5 1 -5 -13z"/>
 <path d="M450 2609 c0 -11 4 -18 10 -14 5 3 7 12 3 20 -7 21 -13 19 -13 -6z"/>
 <path d="M437 2470 c-5 -21 7 -28 18 -10 4 6 10 8 15 5 4 -3 10 2 14 10 4 11 -1 15 -18 15 -15 0 -26 -7 -29 -20z"/>
 <path d="M315 2456 c-13 -19 -14 -29 -5 -45 23 -43 67 -7 54 44 -8 32 -29 32 -49 1z"/>
 <path d="M480 2421 c0 -25 6 -27 13 -6 4 8 2 17 -3 20 -6 4 -10 -3 -10 -14z"/>
 <path d="M501 2354 c0 -11 3 -14 6 -6 3 7 2 16 -1 19 -3 4 -6 -2 -5 -13z"/>
 <path d="M516 2242 c6 -52 34 -145 47 -159 11 -10 8 -61 -3 -65 -5 -2 -6 -9 -1 -17 11 -16 31 -6 31 16 0 8 -14 57 -30 108 -17 51 -30 96 -29 101 1 5 0 16 -4 24 -3 8 -8 22 -11 30 -3 8 -3 -9 0 -38z"/>
 <path d="M2393 2103 c-21 -8 -15 -33 7 -33 13 0 20 7 20 20 0 20 -5 23 -27 13z"/>
 <path d="M2230 2006 c-108 -46 -206 -84 -249 -97 -38 -12 -49 -22 -83 -79 -21 -36 -48 -73 -59 -82 l-20 -17 20 -13 c12 -7 21 -16 21 -21 0 -4 23 -36 50 -71 28 -35 50 -70 50 -77 0 -8 9 -39 21 -69 27 -70 24 -224 -5 -280 -10 -19 -19 -42 -21 -50 -2 -8 -4 -19 -5 -25 -6 -28 2 -35 43 -35 34 0 54 -7 87 -32 24 -18 52 -40 64 -48 12 -8 28 -23 36 -34 21 -28 110 -117 140 -141 14 -11 42 -47 63 -80 l37 -59 0 157 c0 101 -4 157 -10 157 -11 0 -14 -7 -24 -52 -7 -29 -36 -39 -36 -13 0 9 -7 27 -16 40 -14 22 -21 24 -60 18 -51 -7 -55 1 -17 31 36 28 121 39 146 18 16 -14 17 9 17 466 0 379 -3 482 -12 482 -19 0 -20 -24 -22 -378 0 -177 -5 -322 -9 -322 -5 0 -8 -10 -7 -22 4 -39 0 -49 -12 -42 -11 7 -9 -13 7 -79 6 -21 1 -32 -20 -52 -37 -33 -51 -32 -64 6 -15 43 -14 59 3 53 10 -4 12 4 9 35 -2 23 0 41 5 41 10 0 10 -3 11 354 1 180 5 295 12 308 8 15 6 26 -7 46 -10 15 -20 39 -23 54 l-6 27 -55 -23z"/>
 <path d="M525 2010 c3 -5 8 -10 11 -10 3 0 2 5 -1 10 -3 6 -8 10 -11 10 -3 0 -2 -4 1 -10z"/>
 <path d="M640 1876 c0 -2 7 -7 16 -10 8 -3 12 -2 9 4 -6 10 -25 14 -25 6z"/>
 <path d="M695 1810 c3 -5 8 -10 11 -10 3 0 2 5 -1 10 -3 6 -8 10 -11 10 -3 0 -2 -4 1 -10z"/>
 <path d="M2145 779 c-33 -14 -69 -37 -81 -50 -32 -36 -95 -136 -99 -156 -2 -10 -4 -18 -5 -18 -1 0 -4 -13 -6 -30 -2 -16 -7 -47 -10 -67 -13 -80 41 -128 144 -128 73 0 132 25 167 70 17 22 35 39 41 40 28 1 94 113 94 160 0 36 -35 110 -52 110 -6 0 -9 3 -5 6 5 6 -70 83 -83 85 -35 5 -55 1 -105 -22z m49 -205 c20 -20 20 -38 0 -59 -27 -27 -83 -5 -84 32 0 18 29 43 50 43 10 0 26 -7 34 -16z"/>
 <path d="M1733 433 c4 -3 10 -3 14 0 3 4 0 7 -7 7 -7 0 -10 -3 -7 -7z"/>
 <path d="M1626 278 c-22 -31 -20 -51 9 -78 21 -20 28 -22 50 -12 14 7 30 23 37 36 26 58 -60 106 -96 54z"/>
 </g>
<g id="layer117" fill="#d4d3d3" stroke="none">
 <path d="M0 1600 l0 -1600 1210 0 1210 0 0 283 -1 282 -18 -52 c-11 -28 -27 -64 -36 -80 -21 -36 -131 -119 -176 -134 -19 -6 -41 -13 -49 -16 -8 -4 -33 -7 -54 -7 -35 -1 -41 -5 -47 -29 -9 -35 -27 -57 -46 -57 -23 0 -63 47 -63 73 0 22 -6 26 -42 31 -99 14 -93 17 -90 -38 4 -61 -4 -96 -22 -96 -7 0 -19 -12 -26 -27 -6 -16 -32 -43 -56 -60 -38 -29 -52 -33 -105 -33 l-60 0 2 68 c1 37 -1 77 -5 90 -5 16 0 36 18 69 15 25 25 47 24 48 -12 9 -129 26 -144 21 -11 -3 -27 -25 -36 -48 -20 -47 -43 -62 -117 -72 -63 -9 -86 9 -95 73 -4 30 -2 69 5 93 9 36 9 44 -7 55 -22 16 -30 11 -58 -45 -31 -61 -56 -83 -103 -89 -59 -8 -73 12 -73 98 0 38 6 85 14 104 l15 34 -52 33 c-28 18 -67 42 -86 53 -20 12 -35 27 -34 35 1 8 -15 27 -35 41 -24 16 -42 39 -50 65 -21 62 -44 114 -52 114 -12 0 -38 72 -49 135 -6 33 -13 76 -17 95 -13 73 -15 217 -4 270 6 30 33 91 59 135 26 44 57 105 70 135 13 30 27 60 32 66 5 6 7 19 3 28 -5 13 -21 16 -75 16 l-69 0 -30 63 c-17 35 -30 68 -30 73 0 5 -35 25 -78 45 -42 20 -107 50 -144 67 l-66 31 -28 -24 c-37 -32 -107 -31 -112 2 -3 20 13 32 56 39 27 5 24 14 -17 60 -22 26 -41 53 -41 61 0 26 31 26 59 -1 l27 -26 13 35 c7 19 18 35 24 35 16 0 46 -50 44 -74 -2 -14 11 -23 50 -36 29 -9 68 -29 88 -44 44 -34 58 -31 40 9 -33 73 -44 103 -54 140 -5 22 -15 59 -21 83 l-11 42 -49 0 c-66 0 -80 16 -80 90 0 38 4 60 12 63 7 2 10 7 7 11 -11 12 -66 -15 -77 -39 -15 -33 -49 -33 -64 0 -10 22 -8 29 12 50 34 36 99 64 153 66 54 2 53 1 32 95 -9 36 -15 89 -13 118 l3 51 253 -4 252 -4 0 182 0 181 -410 0 -410 0 0 -1600z"/>
 <path d="M1230 3175 c0 -18 -10 -32 -32 -46 -28 -17 -43 -19 -98 -14 -36 3 -95 8 -132 12 l-68 6 0 -147 0 -146 320 0 320 0 0 149 c0 82 -3 163 -6 180 l-6 31 -149 0 -149 0 0 -25z"/>
 <path d="M1955 3185 c-3 -8 -7 -22 -10 -30 -7 -25 -70 -45 -107 -34 -18 5 -73 9 -122 9 -76 0 -87 -2 -82 -16 3 -9 6 -73 6 -144 l0 -128 251 -4 c274 -4 275 -4 264 -63 -11 -68 -15 -91 -19 -120 -25 -181 -95 -509 -130 -607 -13 -38 -22 -68 -20 -68 9 0 129 61 143 73 9 8 42 19 73 26 64 14 103 49 92 83 -3 10 -1 24 4 31 14 16 17 305 5 337 -6 14 -13 57 -17 97 -5 57 -3 75 9 87 12 12 15 54 15 250 l0 236 -175 0 c-147 0 -176 -2 -180 -15z"/>
 <path d="M2390 2999 c0 -163 -3 -203 -15 -215 -20 -20 -12 -184 10 -200 9 -7 12 -21 9 -40 -3 -16 -6 -94 -8 -174 -1 -80 -6 -152 -11 -160 -12 -20 -16 -60 -4 -60 5 0 9 4 9 9 0 5 9 11 20 14 20 5 20 14 20 516 0 448 -2 511 -15 511 -13 0 -15 -29 -15 -201z"/>
 <path d="M315 2456 c-13 -19 -14 -29 -5 -45 23 -43 67 -7 54 44 -8 32 -29 32 -49 1z"/>
 <path d="M2393 2103 c-21 -8 -15 -33 7 -33 13 0 20 7 20 20 0 20 -5 23 -27 13z"/>
 <path d="M2230 2006 c-108 -46 -206 -84 -249 -97 -38 -12 -49 -22 -83 -79 -21 -36 -48 -73 -59 -82 l-20 -17 20 -13 c12 -7 21 -16 21 -21 0 -4 23 -36 50 -71 28 -35 50 -70 50 -77 0 -8 9 -39 21 -69 27 -70 24 -224 -5 -280 -10 -19 -19 -42 -21 -50 -2 -8 -4 -19 -5 -25 -6 -28 2 -35 43 -35 34 0 54 -7 87 -32 24 -18 52 -40 64 -48 12 -8 28 -23 36 -34 21 -28 110 -117 140 -141 14 -11 42 -47 63 -80 l37 -59 0 157 c0 101 -4 157 -10 157 -11 0 -14 -7 -24 -52 -7 -29 -36 -39 -36 -13 0 9 -7 27 -16 40 -14 22 -21 24 -60 18 -51 -7 -55 1 -17 31 36 28 121 39 146 18 16 -14 17 9 17 466 0 379 -3 482 -12 482 -19 0 -20 -24 -22 -378 0 -177 -5 -322 -9 -322 -5 0 -8 -10 -7 -22 4 -39 0 -49 -12 -42 -11 7 -9 -13 7 -79 6 -21 1 -32 -20 -52 -37 -33 -51 -32 -64 6 -15 43 -14 59 3 53 10 -4 12 4 9 35 -2 23 0 41 5 41 10 0 10 -3 11 354 1 180 5 295 12 308 8 15 6 26 -7 46 -10 15 -20 39 -23 54 l-6 27 -55 -23z"/>
 <path d="M2145 779 c-33 -14 -69 -37 -81 -50 -32 -36 -95 -136 -99 -156 -2 -10 -4 -18 -5 -18 -1 0 -4 -13 -6 -30 -2 -16 -7 -47 -10 -67 -13 -80 41 -128 144 -128 73 0 132 25 167 70 17 22 35 39 41 40 28 1 94 113 94 160 0 36 -35 110 -52 110 -6 0 -9 3 -5 6 5 6 -70 83 -83 85 -35 5 -55 1 -105 -22z m49 -205 c20 -20 20 -38 0 -59 -27 -27 -83 -5 -84 32 0 18 29 43 50 43 10 0 26 -7 34 -16z"/>
 <path d="M1639 279 c-24 -24 -24 -51 0 -73 39 -35 92 9 70 58 -15 33 -46 39 -70 15z"/>
 </g>
<g id="layer118" fill="#ddf0da" stroke="none">
 <path d="M0 1600 l0 -1600 1210 0 1210 0 0 283 c-1 258 -2 279 -15 242 -8 -22 -15 -47 -15 -55 0 -18 -93 -120 -109 -120 -6 0 -11 -4 -11 -10 0 -10 -85 -53 -110 -55 -8 -1 -19 -3 -25 -5 -5 -1 -28 -3 -50 -4 -37 -1 -40 -3 -43 -31 -6 -61 -70 -76 -99 -22 -9 17 -16 37 -15 43 2 11 -31 21 -83 27 -11 1 -25 5 -31 9 -19 13 -24 -3 -17 -64 6 -56 4 -61 -23 -87 -16 -16 -41 -41 -55 -57 -39 -44 -63 -54 -129 -54 l-60 0 -1 58 c0 31 -2 72 -5 91 -3 24 3 47 21 79 14 24 25 46 25 47 0 1 -11 1 -25 0 -14 -2 -25 0 -25 5 0 12 -65 22 -94 14 -16 -4 -26 -13 -26 -25 0 -60 -43 -88 -143 -93 l-66 -4 -10 50 c-14 62 -14 89 0 125 8 23 7 30 -7 40 -27 20 -32 17 -58 -35 -46 -90 -100 -122 -157 -92 -16 9 -19 22 -19 89 0 43 5 92 11 110 13 38 3 53 -50 80 -102 52 -109 57 -98 75 2 4 -45 50 -66 63 -14 9 -41 61 -42 83 -1 25 -16 60 -25 60 -16 0 -46 82 -59 160 -7 41 -15 86 -18 100 -3 14 -8 69 -10 122 -4 101 14 206 41 238 7 8 23 36 34 63 12 26 26 47 33 47 6 0 9 6 6 14 -3 8 0 20 8 26 8 6 19 28 26 48 7 20 16 40 21 43 5 3 6 13 2 22 -5 14 -20 17 -75 17 -66 0 -70 1 -81 28 -35 79 -70 122 -119 144 -27 13 -49 26 -49 30 0 5 -6 8 -13 8 -7 0 -45 15 -84 34 l-72 35 -28 -25 c-15 -14 -35 -23 -44 -21 -9 3 -23 1 -30 -4 -20 -12 -49 9 -49 36 0 20 6 25 35 31 46 8 54 23 25 46 -29 23 -52 67 -46 85 8 19 37 16 61 -7 l22 -21 13 31 c7 17 20 30 30 30 20 0 43 -39 38 -65 -3 -19 16 -32 81 -56 18 -7 49 -23 68 -36 37 -25 54 -26 31 -2 -7 8 -14 23 -16 34 -2 11 -10 32 -17 48 -8 15 -19 52 -26 83 -7 30 -16 57 -21 60 -4 3 -8 16 -8 30 0 22 -4 24 -42 24 -84 0 -88 4 -88 80 0 46 4 70 12 73 7 2 10 7 7 11 -13 14 -68 -16 -77 -43 -14 -39 -52 -37 -65 2 -10 30 6 77 27 77 5 0 28 9 51 20 22 11 62 20 88 21 53 2 53 1 33 91 -23 103 -27 155 -13 166 14 12 54 13 314 6 l193 -6 0 181 0 181 -410 0 -410 0 0 -1600z"/>
 <path d="M1233 3179 c-1 -11 -9 -31 -17 -44 -14 -22 -21 -23 -131 -22 -64 0 -118 4 -121 9 -3 4 -18 8 -35 8 l-29 0 0 -145 0 -146 318 3 317 3 -1 165 c-1 91 -3 171 -4 178 -3 9 -41 12 -150 12 -141 0 -146 -1 -147 -21z"/>
 <path d="M1957 3193 c-4 -3 -7 -14 -7 -24 0 -31 -49 -55 -117 -57 -34 0 -65 3 -68 8 -7 11 -68 13 -102 4 -22 -6 -23 -10 -23 -144 l0 -138 178 -1 c97 0 212 -3 255 -7 70 -6 78 -9 83 -30 3 -12 2 -33 -2 -46 -4 -13 -7 -35 -5 -50 1 -14 -2 -29 -7 -32 -5 -3 -7 -17 -4 -31 2 -14 -1 -31 -7 -38 -6 -7 -10 -27 -9 -43 2 -34 -30 -222 -42 -244 -4 -8 -10 -35 -14 -60 -6 -47 -14 -85 -23 -110 -4 -8 -7 -19 -8 -25 0 -5 -4 -17 -7 -25 -4 -8 -13 -36 -21 -61 l-15 -45 47 14 c25 8 60 25 76 36 17 12 55 28 85 35 56 14 94 37 84 52 -3 5 -1 9 4 9 5 0 7 11 4 25 -2 14 0 31 6 38 15 18 19 310 4 315 -6 2 -9 9 -6 17 3 7 1 15 -3 18 -14 9 -9 170 5 175 9 3 12 65 12 238 l0 234 -173 0 c-96 0 -177 -3 -180 -7z"/>
 <path d="M2390 2999 c0 -165 -3 -203 -15 -215 -16 -16 -18 -43 -6 -84 4 -14 4 -35 0 -47 -5 -13 -4 -25 2 -29 6 -3 8 -12 5 -20 -3 -8 1 -17 9 -20 10 -4 13 -15 10 -36 -3 -16 -6 -93 -7 -171 -1 -78 -6 -151 -11 -162 -11 -21 -19 -65 -12 -65 2 0 16 11 30 25 l25 26 0 499 c0 438 -2 500 -15 500 -13 0 -15 -29 -15 -201z"/>
 <path d="M320 2455 c-19 -20 -21 -27 -10 -40 31 -37 74 1 50 45 -13 25 -12 25 -40 -5z"/>
 <path d="M2393 2103 c-21 -8 -15 -33 7 -33 13 0 20 7 20 20 0 20 -5 23 -27 13z"/>
 <path d="M2282 2025 c-1 -5 -12 -11 -25 -12 -18 -1 -114 -42 -167 -73 -8 -4 -35 -14 -60 -20 -72 -20 -83 -27 -124 -91 -21 -33 -49 -67 -61 -77 l-22 -18 43 -42 c23 -24 50 -59 58 -77 9 -19 21 -37 26 -40 6 -3 10 -16 10 -28 0 -13 8 -34 18 -47 14 -21 17 -47 17 -150 -1 -113 -3 -130 -27 -181 -14 -31 -23 -61 -19 -67 3 -5 22 -10 41 -10 19 0 53 -8 75 -18 22 -10 43 -17 47 -16 4 1 5 -5 2 -12 -3 -9 6 -22 23 -32 29 -19 35 -25 91 -88 18 -21 37 -34 44 -30 6 4 8 3 4 -4 -6 -11 30 -52 46 -52 4 0 19 -18 33 -40 14 -23 35 -50 45 -60 20 -20 20 -19 20 120 0 115 -3 140 -14 140 -9 0 -16 -12 -18 -32 -2 -26 -8 -34 -27 -36 -20 -3 -23 0 -19 16 6 23 -35 71 -46 54 -10 -16 -71 -9 -71 8 0 8 5 14 12 13 6 -2 20 7 30 20 15 18 29 22 80 24 51 2 63 -1 66 -15 3 -9 5 200 6 466 1 379 -2 482 -11 482 -19 0 -20 -24 -22 -378 0 -177 -4 -322 -8 -322 -4 0 -7 -16 -6 -36 1 -20 -4 -39 -11 -43 -9 -6 -9 -17 2 -49 12 -35 12 -43 1 -53 -8 -6 -11 -15 -8 -20 3 -5 -1 -6 -9 -3 -8 3 -18 1 -22 -5 -12 -21 -33 -11 -44 20 -14 40 -14 72 -1 64 11 -7 13 5 10 43 -1 12 3 22 8 22 4 0 9 15 9 33 0 17 1 167 2 331 0 193 5 303 11 312 8 9 6 17 -9 31 -11 10 -21 34 -24 53 -2 19 -5 31 -5 25z"/>
 <path d="M2159 784 c-22 -13 -47 -24 -54 -24 -16 0 -75 -66 -75 -84 0 -7 -9 -21 -20 -31 -11 -10 -20 -24 -20 -30 0 -7 -7 -18 -15 -25 -8 -6 -14 -15 -13 -18 0 -4 -1 -9 -2 -12 -1 -3 -4 -18 -6 -35 -2 -16 -7 -47 -10 -67 -7 -45 12 -93 43 -107 40 -18 133 -24 179 -11 24 7 41 16 38 21 -3 5 2 6 10 3 9 -3 16 -1 16 5 0 14 50 66 72 74 9 3 24 22 33 41 10 20 22 36 27 36 5 0 7 4 3 9 -3 5 -1 12 5 16 25 15 2 147 -28 164 -9 6 -14 11 -10 11 9 0 -37 50 -47 50 -4 0 -13 7 -19 16 -18 24 -61 23 -107 -2z m38 -210 c15 -24 15 -29 2 -53 -17 -31 -47 -34 -71 -7 -23 25 -23 41 2 66 27 27 46 25 67 -6z"/>
 <path d="M1646 286 c-17 -13 -22 -44 -11 -68 10 -25 61 -24 75 1 22 41 -29 95 -64 67z"/>
 </g>
<g id="layer119" fill="#fdfefd" stroke="none">
 <path d="M0 1600 l0 -1600 1210 0 1211 0 -1 261 c-1 225 -3 259 -16 248 -8 -6 -14 -21 -14 -32 0 -31 -83 -136 -103 -129 -12 3 -58 -49 -51 -59 3 -5 0 -9 -5 -9 -6 0 -11 4 -11 10 0 5 -19 2 -42 -6 -23 -8 -49 -14 -58 -13 -8 1 -18 0 -22 -1 -5 -1 -17 -4 -28 -5 -34 -4 -35 -5 -21 -14 10 -7 8 -15 -14 -39 -23 -26 -34 -31 -67 -29 -22 1 -35 3 -29 5 7 2 6 11 -4 25 -8 12 -15 32 -15 44 0 15 -6 23 -17 24 -10 1 -29 3 -43 4 -34 3 -55 -7 -56 -27 -1 -10 2 -15 7 -12 5 3 9 0 9 -5 0 -6 -5 -11 -11 -11 -7 0 -9 -11 -6 -26 3 -18 -2 -32 -17 -47 -12 -12 -25 -30 -28 -39 -4 -9 -29 -33 -55 -53 -45 -33 -52 -35 -113 -32 l-65 2 -2 105 c-3 101 6 143 32 162 5 4 0 8 -12 8 -12 0 -24 4 -27 8 -3 5 -18 9 -33 10 -16 0 -35 2 -43 4 -8 2 -24 -16 -39 -44 -31 -57 -56 -70 -143 -75 l-66 -4 -11 51 c-14 64 -14 91 0 127 8 23 7 30 -8 40 -15 12 -20 10 -34 -9 -10 -12 -15 -26 -13 -30 3 -4 0 -8 -6 -8 -7 0 -10 -7 -6 -15 3 -8 0 -14 -7 -12 -7 1 -11 -6 -10 -16 0 -10 -1 -16 -4 -13 -3 3 -17 -4 -31 -14 -31 -25 -86 -26 -110 -2 -21 21 -30 146 -12 167 8 10 8 15 0 20 -8 5 -5 11 7 20 17 12 16 14 -7 34 -14 11 -48 32 -75 45 -55 27 -99 66 -74 66 12 0 12 2 -1 9 -8 6 -18 7 -22 5 -4 -3 -5 2 -2 11 5 11 2 14 -12 8 -10 -4 -15 -2 -11 4 7 11 -27 43 -46 43 -9 0 -8 3 1 9 12 7 12 11 0 21 -8 8 -12 26 -10 42 3 21 0 28 -12 28 -11 0 -14 5 -10 12 5 8 2 9 -10 5 -10 -4 -15 -3 -11 3 8 13 -4 52 -14 46 -4 -3 -7 3 -8 12 0 9 -4 28 -8 42 -3 14 -9 57 -12 95 -3 39 -9 72 -14 73 -13 5 -11 207 2 262 6 25 12 50 13 56 1 5 12 23 24 39 13 16 21 37 19 46 -3 10 2 20 10 23 12 5 13 9 3 21 -11 13 -10 14 3 9 23 -8 41 39 26 69 -9 20 -9 20 4 5 8 -10 17 -15 20 -11 4 3 2 12 -5 20 -8 10 -8 12 3 8 10 -4 19 6 27 28 14 39 15 47 5 46 -37 -6 -134 3 -143 14 -51 61 -71 94 -68 116 3 21 -6 29 -60 57 -34 18 -60 27 -56 21 3 -7 -1 -4 -9 5 -8 10 -23 16 -36 13 -14 -2 -19 0 -15 7 5 8 1 9 -10 5 -10 -4 -15 -3 -11 3 3 6 -2 13 -12 16 -10 3 -26 10 -36 15 -23 12 -59 -10 -53 -33 2 -11 -1 -18 -10 -18 -8 0 -11 6 -7 17 4 11 3 14 -5 9 -20 -12 -62 -17 -84 -11 -15 5 -18 14 -16 38 2 18 9 33 16 33 6 1 15 3 20 4 9 3 24 6 36 8 5 1 1 11 -9 22 -14 16 -21 18 -27 8 -7 -10 -8 -9 -7 2 3 31 -1 50 -12 50 -6 0 -8 -7 -5 -16 3 -9 2 -12 -5 -9 -5 4 -7 16 -4 26 4 11 2 26 -4 33 -9 11 -6 15 15 20 20 5 33 1 50 -15 25 -23 44 -18 44 12 0 27 37 25 60 -3 13 -16 15 -28 9 -40 -7 -14 -3 -20 20 -32 15 -8 31 -13 34 -10 2 3 30 -11 61 -31 31 -19 56 -31 56 -25 0 5 -4 10 -8 10 -5 0 -14 18 -21 41 -8 26 -17 39 -25 36 -9 -4 -11 2 -8 19 2 13 -4 58 -13 99 l-18 75 -51 2 c-28 0 -56 1 -62 1 -14 0 -6 140 9 149 21 13 -1 19 -27 7 -24 -11 -27 -16 -25 -35 1 -11 -36 -33 -55 -34 -12 0 -16 -5 -12 -16 3 -9 2 -12 -4 -9 -6 4 -10 12 -8 18 1 7 -2 27 -6 45 -5 22 -4 38 3 45 18 18 13 31 -6 16 -16 -12 -17 -12 -5 2 8 11 21 14 39 11 22 -4 25 -2 20 12 -4 10 -3 15 3 11 6 -3 10 -1 10 5 0 6 5 8 10 5 6 -3 10 -2 10 4 0 6 14 7 34 4 51 -8 90 4 81 25 -4 9 -9 33 -11 52 -3 19 -9 55 -14 80 -11 50 -8 96 7 111 7 7 105 10 261 10 l250 -1 2 170 1 170 -411 0 -410 0 0 -1600z m287 1203 c-4 -3 -10 -3 -14 0 -3 4 0 7 7 7 7 0 10 -3 7 -7z m-190 -258 c0 -8 -4 -12 -9 -9 -5 3 -6 10 -3 15 9 13 12 11 12 -6z m103 -129 c0 -3 -5 -8 -12 -12 -7 -4 -8 -3 -4 4 7 12 16 16 16 8z m27 -13 c-4 -3 -7 0 -7 7 0 7 3 10 7 7 3 -4 3 -10 0 -14z m50 -80 c-4 -3 -10 -3 -14 0 -3 4 0 7 7 7 7 0 10 -3 7 -7z m-97 -87 c0 -3 -5 -8 -12 -12 -7 -4 -8 -3 -4 4 7 12 16 16 16 8z m19 -33 c-6 -7 -15 -10 -20 -7 -13 8 -3 21 15 21 12 0 13 -4 5 -14z m108 -60 c-4 -3 -7 0 -7 7 0 7 3 10 7 7 3 -4 3 -10 0 -14z m58 7 c3 -5 4 -10 1 -10 -3 0 -8 5 -11 10 -3 6 -4 10 -1 10 3 0 8 -4 11 -10z m-25 -4 c0 -3 -5 -8 -12 -12 -7 -4 -8 -3 -4 4 7 12 16 16 16 8z m-233 -173 c-4 -3 -10 -3 -14 0 -3 4 0 7 7 7 7 0 10 -3 7 -7z m410 -125 c-3 -8 -6 -5 -6 6 -1 11 2 17 5 13 3 -3 4 -12 1 -19z m113 -332 c0 -3 -5 -8 -12 -12 -7 -4 -8 -3 -4 4 7 12 16 16 16 8z m45 -706 c3 -5 4 -10 1 -10 -3 0 -8 5 -11 10 -3 6 -4 10 -1 10 3 0 8 -4 11 -10z m252 -277 c-4 -3 -10 -3 -14 0 -3 4 0 7 7 7 7 0 10 -3 7 -7z m233 -127 c0 -3 -5 -8 -12 -12 -7 -4 -8 -3 -4 4 7 12 16 16 16 8z m-243 -23 c-4 -3 -7 0 -7 7 0 7 3 10 7 7 3 -4 3 -10 0 -14z m1253 -117 c0 -3 -5 -8 -12 -12 -7 -4 -8 -3 -4 4 7 12 16 16 16 8z m-883 -83 c-4 -3 -7 0 -7 7 0 7 3 10 7 7 3 -4 3 -10 0 -14z m50 -20 c-4 -3 -7 0 -7 7 0 7 3 10 7 7 3 -4 3 -10 0 -14z m720 0 c-4 -3 -7 0 -7 7 0 7 3 10 7 7 3 -4 3 -10 0 -14z m-420 -149 c-3 -3 -12 -4 -19 -1 -8 3 -5 6 6 6 11 1 17 -2 13 -5z"/>
 <path d="M1233 3188 c2 -67 -31 -89 -118 -78 -33 4 -88 5 -122 2 -43 -3 -67 -1 -78 8 -13 11 -15 -4 -15 -134 0 -141 6 -168 29 -128 6 9 11 13 11 7 0 -6 80 -9 227 -7 147 2 230 -1 237 -8 14 -14 109 -13 124 2 16 16 16 257 0 309 l-11 39 -142 0 c-108 0 -143 -3 -142 -12z"/>
 <path d="M1957 3193 c-4 -3 -7 -18 -7 -32 0 -19 -8 -30 -30 -39 -16 -7 -37 -13 -47 -12 -10 1 -22 1 -28 0 -28 -5 -131 3 -141 11 -7 6 -24 7 -38 3 l-26 -6 0 -120 c0 -66 4 -127 9 -137 9 -16 30 -17 235 -17 124 1 226 -2 226 -6 0 -5 9 -8 19 -8 29 0 34 -32 21 -128 -13 -93 -17 -116 -20 -119 -2 -2 -3 -15 -5 -30 -1 -16 -8 -59 -14 -98 -7 -38 -14 -81 -16 -95 -1 -14 -5 -32 -8 -40 -5 -14 -16 -57 -23 -90 -2 -8 -6 -29 -8 -47 -2 -17 -11 -46 -19 -65 -20 -45 -40 -108 -35 -113 7 -8 83 17 98 31 12 12 13 16 2 23 -11 7 -10 9 3 14 9 4 13 3 10 -3 -7 -11 8 -14 18 -4 4 4 23 8 43 10 20 2 42 8 48 14 7 5 16 7 20 3 3 -4 13 2 20 13 11 14 11 21 3 26 -8 5 -6 8 6 8 12 0 17 8 17 28 0 15 4 32 10 38 5 5 11 70 12 144 3 133 3 135 -22 158 -14 13 -19 21 -12 17 7 -4 12 0 12 10 0 9 -4 14 -9 11 -5 -3 -5 12 0 36 6 23 6 52 1 67 -9 27 9 97 21 85 4 -4 7 99 7 229 l0 237 -173 0 c-96 0 -177 -3 -180 -7z m310 -700 c-4 -3 -7 0 -7 7 0 7 3 10 7 7 3 -4 3 -10 0 -14z m-10 -290 c-4 -3 -7 0 -7 7 0 7 3 10 7 7 3 -4 3 -10 0 -14z"/>
 <path d="M2390 2979 c1 -121 -2 -224 -6 -227 -4 -4 -4 1 -1 10 3 10 2 20 -2 23 -10 6 -23 -53 -15 -67 3 -5 7 -37 8 -71 2 -33 7 -62 12 -64 9 -3 10 -251 1 -260 -3 -2 -3 -22 0 -43 4 -27 0 -47 -10 -64 -20 -30 -3 -52 26 -32 16 12 17 49 17 515 0 443 -2 501 -15 501 -14 0 -16 -29 -15 -221z"/>
 <path d="M2295 2510 c3 -5 8 -10 11 -10 2 0 4 5 4 10 0 6 -5 10 -11 10 -5 0 -7 -4 -4 -10z"/>
 <path d="M317 2452 c-17 -19 -14 -33 6 -28 7 2 9 1 5 -1 -13 -8 -9 -23 6 -23 19 0 27 25 13 39 -8 8 -8 11 2 11 7 0 9 5 6 10 -9 15 -20 12 -38 -8z"/>
 <path d="M2391 2101 c-16 -10 -6 -31 15 -31 8 0 14 9 14 20 0 22 -7 25 -29 11z"/>
 <path d="M2240 2010 c-17 -4 -24 -12 -22 -26 2 -16 1 -17 -8 -4 -9 13 -12 12 -25 -4 -8 -11 -15 -14 -15 -8 0 9 -5 9 -22 1 -13 -7 -30 -15 -38 -20 -8 -4 -14 -12 -12 -19 1 -6 -1 -9 -6 -6 -15 9 -143 -32 -157 -50 -8 -11 -17 -31 -20 -47 -4 -15 -11 -25 -15 -22 -5 3 -14 -4 -20 -16 -7 -13 -8 -19 -2 -15 6 3 14 1 18 -6 4 -7 4 -10 -1 -6 -10 9 -47 -10 -40 -22 3 -4 -5 -6 -17 -2 -21 5 -22 4 -9 -12 8 -9 16 -14 19 -11 3 3 12 -4 19 -15 8 -11 19 -17 25 -14 7 4 8 2 4 -5 -4 -6 1 -24 11 -39 34 -52 43 -67 56 -94 11 -23 16 -26 27 -15 12 10 12 9 1 -5 -9 -12 -10 -26 -2 -55 11 -44 17 -208 8 -238 -3 -11 -15 -39 -27 -63 -25 -52 -20 -80 15 -78 14 0 25 5 25 10 0 5 7 3 15 -4 31 -26 84 -48 90 -36 2 6 2 1 -1 -11 -4 -17 2 -25 31 -39 20 -9 47 -33 60 -53 22 -35 87 -101 70 -71 -5 8 11 -5 36 -30 25 -25 51 -55 58 -68 7 -12 16 -20 21 -17 6 3 7 0 4 -8 -3 -8 2 -17 10 -20 14 -6 16 10 16 123 0 113 -2 130 -16 130 -11 0 -15 -6 -11 -19 2 -10 0 -26 -5 -35 -7 -12 -5 -22 4 -34 12 -15 11 -16 -4 -4 -9 8 -23 10 -30 6 -7 -4 -10 -4 -6 1 4 4 1 14 -7 22 -8 8 -15 23 -15 34 0 10 -6 20 -12 20 -35 5 -54 4 -63 -3 -6 -4 -15 -4 -21 0 -13 9 -26 54 -13 46 14 -9 49 6 49 21 0 7 5 15 12 17 8 3 7 16 -4 49 -12 36 -13 49 -3 62 6 9 14 14 17 11 3 -2 3 7 1 21 -3 14 -1 25 3 25 12 0 17 144 14 457 -1 112 1 207 5 213 3 5 1 10 -5 10 -6 0 -8 4 -5 10 3 5 0 19 -8 31 -8 11 -13 28 -10 38 5 19 -6 21 -47 11z m-115 -80 c3 -5 4 -10 1 -10 -3 0 -8 5 -11 10 -3 6 -4 10 -1 10 3 0 8 -4 11 -10z m-138 -47 c-4 -3 -10 -3 -14 0 -3 4 0 7 7 7 7 0 10 -3 7 -7z m-100 -140 c-4 -3 -10 -3 -14 0 -3 4 0 7 7 7 7 0 10 -3 7 -7z m20 -10 c-4 -3 -7 0 -7 7 0 7 3 10 7 7 3 -4 3 -10 0 -14z m380 -430 c-4 -3 -7 0 -7 7 0 7 3 10 7 7 3 -4 3 -10 0 -14z m-17 -87 c0 -2 -7 -7 -16 -10 -8 -3 -12 -2 -9 4 6 10 25 14 25 6z m0 -100 c0 -3 -5 -8 -12 -12 -7 -4 -8 -3 -4 4 7 12 16 16 16 8z m-200 -12 c0 -8 -19 -13 -24 -6 -3 5 1 9 9 9 8 0 15 -2 15 -3z m210 -8 c0 -3 -5 -8 -12 -12 -7 -4 -8 -3 -4 4 7 12 16 16 16 8z m-133 -43 c-4 -3 -7 0 -7 7 0 7 3 10 7 7 3 -4 3 -10 0 -14z m110 0 c-4 -3 -7 0 -7 7 0 7 3 10 7 7 3 -4 3 -10 0 -14z m58 -73 c3 -6 -1 -7 -9 -4 -18 7 -21 14 -7 14 6 0 13 -4 16 -10z m-55 -24 c0 -3 -5 -8 -12 -12 -7 -4 -8 -3 -4 4 7 12 16 16 16 8z m25 -34 c-3 -3 -11 0 -18 7 -9 10 -8 11 6 5 10 -3 15 -9 12 -12z m-30 -2 c3 -5 4 -10 1 -10 -3 0 -8 5 -11 10 -3 6 -4 10 -1 10 3 0 8 -4 11 -10z"/>
 <path d="M2395 1961 c0 -22 -3 -37 -8 -34 -5 3 -7 -139 -5 -316 2 -177 1 -321 -2 -321 -3 0 -5 -14 -6 -30 -1 -17 4 -30 10 -30 6 0 4 -4 -4 -9 -8 -6 -18 -7 -22 -5 -12 8 -10 -8 5 -36 21 -40 27 -69 12 -64 -14 6 -39 -21 -31 -35 3 -5 -2 -7 -13 -4 -10 3 -22 -1 -26 -7 -5 -9 7 -10 48 -5 49 6 56 5 60 -11 2 -11 5 198 6 464 1 388 -1 482 -12 482 -8 0 -12 -14 -12 -39z"/>
 <path d="M2202 795 c-18 -8 -36 -14 -40 -14 -4 -1 -24 -12 -45 -26 -22 -14 -43 -25 -48 -25 -5 0 -9 -7 -9 -15 0 -8 -4 -15 -10 -15 -5 0 -6 -7 -3 -17 4 -10 2 -14 -4 -10 -6 4 -16 -6 -22 -23 -5 -17 -14 -30 -19 -30 -15 0 -46 -74 -44 -107 1 -18 -3 -35 -8 -38 -18 -11 -10 -69 13 -98 27 -32 76 -49 102 -35 14 8 16 8 10 -2 -6 -10 3 -12 43 -6 67 9 112 25 112 41 0 7 16 26 35 42 19 17 35 35 35 41 0 7 7 9 17 5 13 -5 15 -2 11 15 -4 13 -2 20 5 19 6 -1 13 9 15 22 2 15 0 21 -7 17 -17 -11 -13 0 6 15 11 10 14 10 9 2 -4 -7 -3 -13 3 -13 6 0 13 11 17 24 8 34 1 81 -12 79 -7 -1 -10 6 -7 17 3 11 0 20 -6 20 -5 0 -8 7 -5 15 4 8 1 15 -7 15 -7 0 -10 3 -6 6 7 8 -42 54 -57 54 -6 0 -4 -5 4 -11 13 -9 13 -10 0 -6 -8 2 -14 9 -13 15 1 5 -5 17 -15 25 -15 13 -21 14 -50 2z m-47 -35 c-3 -5 -12 -10 -18 -10 -7 0 -6 4 3 10 19 12 23 12 15 0z m-110 -110 c3 -5 4 -10 1 -10 -3 0 -8 5 -11 10 -3 6 -4 10 -1 10 3 0 8 -4 11 -10z m152 -37 c-4 -3 -10 -3 -14 0 -3 4 0 7 7 7 7 0 10 -3 7 -7z m19 -25 c5 4 2 -2 -6 -12 -14 -18 -13 -19 2 -13 10 3 20 1 24 -5 4 -7 3 -8 -4 -4 -16 10 -36 -42 -22 -59 7 -8 5 -12 -5 -12 -8 0 -12 4 -9 9 3 4 0 8 -5 8 -6 0 -11 -4 -11 -10 0 -22 -63 18 -81 53 -7 12 -6 17 3 15 7 -2 14 7 16 20 2 12 7 20 12 17 5 -3 11 -1 15 5 4 6 16 5 34 -5 16 -8 32 -11 37 -7z m24 -72 c0 -3 -5 -8 -12 -12 -7 -4 -8 -3 -4 4 7 12 16 16 16 8z m-133 -23 c-4 -3 -7 0 -7 7 0 7 3 10 7 7 3 -4 3 -10 0 -14z m160 -40 c-4 -3 -7 0 -7 7 0 7 3 10 7 7 3 -4 3 -10 0 -14z m-270 -70 c0 -9 -4 -10 -14 -2 -7 6 -13 12 -13 14 0 1 6 2 13 2 8 0 14 -6 14 -14z m193 1 c0 -8 -19 -13 -24 -6 -3 5 1 9 9 9 8 0 15 -2 15 -3z m25 -14 c-3 -5 -12 -10 -18 -10 -7 0 -6 4 3 10 19 12 23 12 15 0z m-138 -7 c-4 -3 -10 -3 -14 0 -3 4 0 7 7 7 7 0 10 -3 7 -7z m-30 -10 c-4 -3 -10 -3 -14 0 -3 4 0 7 7 7 7 0 10 -3 7 -7z"/>
 <path d="M2411 544 c0 -11 3 -14 6 -6 3 7 2 16 -1 19 -3 4 -6 -2 -5 -13z"/>
 <path d="M1643 264 c-3 -9 0 -20 8 -25 10 -6 10 -9 2 -9 -19 0 -16 -17 4 -25 27 -10 56 30 40 56 -14 23 -45 25 -54 3z"/>
 </g>

</svg>